<svg width="30" height="30" viewBox="0 0 30 30" xmlns="http://www.w3.org/2000/svg">
  <path d="M28.5484 0H7.25806C6.45774 0 5.80645 0.65129 5.80645 1.45161V8.70968H2.41935C1.08532 8.70968 0 9.795 0 11.129V22.7419C0 24.076 1.08532 25.1613 2.41935 25.1613H7.07032L6.42532 27.0968H4.83871C4.03839 27.0968 3.3871 27.7481 3.3871 28.5484V30H17.9032V28.5484C17.9032 27.7481 17.2519 27.0968 16.4516 27.0968H14.865L14.22 25.1613H18.871C20.205 25.1613 21.2903 24.076 21.2903 22.7419V22.2581H28.5484C29.3487 22.2581 30 21.6068 30 20.8065V1.45161C30 0.65129 29.3487 0 28.5484 0ZM7.25806 0.967742H28.5484C28.815 0.967742 29.0323 1.185 29.0323 1.45161V3.87097H6.77419V1.45161C6.77419 1.185 6.99145 0.967742 7.25806 0.967742ZM2.41935 9.67742H18.871C19.6713 9.67742 20.3226 10.3287 20.3226 11.129V20.3226H0.967742V11.129C0.967742 10.3287 1.61903 9.67742 2.41935 9.67742ZM21.2903 12.5806H27.0968V19.3548H21.2903V12.5806ZM16.9355 28.5484V29.0323H4.35484V28.5484C4.35484 28.2818 4.5721 28.0645 4.83871 28.0645H16.4516C16.7182 28.0645 16.9355 28.2818 16.9355 28.5484ZM13.8445 27.0968H7.44581L8.09081 25.1613H13.1995L13.8445 27.0968ZM18.871 24.1936H2.41935C1.61903 24.1936 0.967742 23.5423 0.967742 22.7419V21.2903H20.3226V22.7419C20.3226 23.5423 19.6713 24.1936 18.871 24.1936ZM28.5484 21.2903H21.2903V20.3226H28.0645V11.6129H21.2903V11.129C21.2903 9.795 20.205 8.70968 18.871 8.70968H6.77419V4.83871H29.0323V20.8065C29.0323 21.0731 28.815 21.2903 28.5484 21.2903Z" />
  <path d="M8.22579 22.2581H9.19354V23.2258H8.22579V22.2581Z" />
  <path d="M10.1613 22.2581H11.129V23.2258H10.1613V22.2581Z" />
  <path d="M12.0968 22.2581H13.0645V23.2258H12.0968V22.2581Z" />
  <path d="M9.67742 1.93548H10.6452V2.90323H9.67742V1.93548Z" />
  <path d="M11.6129 1.93548H12.5807V2.90323H11.6129V1.93548Z" />
  <path d="M7.74192 1.93548H8.70966V2.90323H7.74192V1.93548Z" />
  <path d="M7.74192 5.80645H8.70966V6.77419H7.74192V5.80645Z" />
  <path d="M9.67742 5.80645H28.0645V6.77419H9.67742V5.80645Z" />
  <path d="M22.2581 7.74194H28.0645V8.70968H22.2581V7.74194Z" />
  <path d="M22.2581 9.67742H28.0645V10.6452H22.2581V9.67742Z" />
  <path d="M3.38711 19.3548H13.0645C13.8649 19.3548 14.5161 18.7036 14.5161 17.9032V12.0968C14.5161 11.2965 13.8649 10.6452 13.0645 10.6452H3.38711C2.58679 10.6452 1.9355 11.2965 1.9355 12.0968V17.9032C1.9355 18.7036 2.58679 19.3548 3.38711 19.3548ZM2.90324 12.0968C2.90324 11.8302 3.1205 11.6129 3.38711 11.6129H13.0645C13.3311 11.6129 13.5484 11.8302 13.5484 12.0968V17.9032C13.5484 18.1698 13.3311 18.3871 13.0645 18.3871H3.38711C3.1205 18.3871 2.90324 18.1698 2.90324 17.9032V12.0968Z" />
  <path d="M6.80193 17.7423L8.736 11.934L9.65438 12.2398L7.72031 18.0481L6.80193 17.7423Z" />
  <path d="M10.5034 17.2776L12.781 15.0001L10.5034 12.7225L9.81918 13.4067L11.4126 15.0001L9.81918 16.5935L10.5034 17.2776Z" />
  <path d="M6.63242 16.5935L5.03903 15.0001L6.63242 13.4067L5.94822 12.7225L3.67064 15.0001L5.94822 17.2776L6.63242 16.5935Z" />
  <path d="M15.4839 10.6452H19.3548V11.6129H15.4839V10.6452Z" />
  <path d="M15.4839 12.5806H19.3548V13.5484H15.4839V12.5806Z" />
  <path d="M15.4839 14.5161H19.3548V15.4839H15.4839V14.5161Z" />
  <path d="M15.4839 16.4516H19.3548V17.4194H15.4839V16.4516Z" />
  <path d="M16.4516 18.3871H17.4194V19.3548H16.4516V18.3871Z" />
  <path d="M18.3871 18.3871H19.3548V19.3548H18.3871V18.3871Z" />
</svg>
