<svg width="30" height="30" viewBox="0 0 30 30" xmlns="http://www.w3.org/2000/svg">
  <path d="M15 1.05495C9.52044 1.05495 5.0625 5.75782 5.0625 11.5385C5.0625 13.4588 5.55888 15.3367 6.49813 16.9694C6.64144 17.2184 6.56619 17.5428 6.33012 17.6939C6.09419 17.845 5.78662 17.7659 5.64331 17.5167C5.175 16.7026 4.80781 15.8329 4.54494 14.929C2.55863 15.17 1 16.9724 1 19.1209C1 21.4477 2.79437 23.3407 5 23.3407C5.27612 23.3407 5.5 23.5768 5.5 23.8681C5.5 24.1594 5.27612 24.3956 5 24.3956C2.243 24.3956 0 22.0294 0 19.1209C0 16.4633 1.86044 14.2616 4.29319 13.8998C2.87213 6.70457 8.10394 0 15 0C20.1333 0 24.5277 3.76556 25.6579 8.93545C25.7199 9.21936 25.5522 9.50255 25.2831 9.56796C25.0139 9.63382 24.7455 9.4564 24.6835 9.17255C23.6386 4.39299 19.6566 1.05495 15 1.05495ZM23.6875 11.0769H22C21.7239 11.0769 21.5 11.3131 21.5 11.6044C21.5 11.8957 21.7239 12.1319 22 12.1319H23.6875C26.6168 12.1319 29 14.646 29 17.7363C29 20.4135 27.1951 22.7269 24.7085 23.2374C24.4374 23.2931 24.2604 23.5699 24.3132 23.8559C24.3659 24.1419 24.6285 24.3287 24.8994 24.2729C27.8549 23.6662 30 20.9173 30 17.7363C30 14.0643 27.1682 11.0769 23.6875 11.0769ZM10.9202 19.0329C10.7236 18.711 10.2764 18.711 10.0798 19.0329L7.11944 23.8768C6.90556 24.2267 7.14375 24.6901 7.53969 24.6901H8.85219V27.0506C8.85219 28.6769 10.1063 30 11.6479 30C11.9241 30 12.1479 29.7638 12.1479 29.4725C12.1479 29.1812 11.9241 28.9451 11.6479 28.9451C10.6578 28.9451 9.85219 28.0952 9.85219 27.0506V24.1627C9.85219 23.8714 9.62831 23.6352 9.35219 23.6352H8.457L10.5 20.2921L12.5431 23.6352H11.6479C11.3717 23.6352 11.1479 23.8714 11.1479 24.1627V26.4835C11.1479 26.7748 11.3717 27.011 11.6479 27.011C11.924 27.011 12.1479 26.7748 12.1479 26.4835V24.6901H13.4604C13.8565 24.6901 14.0944 24.2265 13.8806 23.8768L10.9202 19.0329ZM22.4604 24.1011H21.1479V22.1319C21.1479 21.8406 20.924 21.6044 20.6479 21.6044C20.3717 21.6044 20.1479 21.8406 20.1479 22.1319V24.6285C20.1479 24.9198 20.3717 25.156 20.6479 25.156H21.5431L19.5 28.4991L17.4569 25.156H18.3521C18.6283 25.156 18.8521 24.9198 18.8521 24.6285V21.7406C18.8521 20.696 19.6577 19.8462 20.6479 19.8462C20.924 19.8462 21.1479 19.61 21.1479 19.3187C21.1479 19.0274 20.924 18.7912 20.6479 18.7912C19.1063 18.7912 17.8521 20.1143 17.8521 21.7406V24.1011H16.5396C16.1435 24.1011 15.9056 24.5647 16.1194 24.9144L19.0798 29.7584C19.2764 30.0802 19.7236 30.0802 19.9202 29.7584L22.8806 24.9144C23.0948 24.5639 22.8558 24.1011 22.4604 24.1011Z" />
</svg>
