<svg width="30" height="30" viewBox="0 0 30 30" xmlns="http://www.w3.org/2000/svg">
  <path d="M20.91 9.005C20.8086 8.71172 20.6183 8.45734 20.3656 8.27722C20.1129 8.09711 19.8103 8.00021 19.5 8H19V7H19.5C19.8975 6.99881 20.2783 6.8404 20.5594 6.55935C20.8404 6.2783 20.9988 5.89746 21 5.5V1.5C20.9988 1.10254 20.8404 0.721699 20.5594 0.440651C20.2783 0.159603 19.8975 0.00118705 19.5 0H1.5C1.10254 0.00118705 0.721699 0.159603 0.440651 0.440651C0.159603 0.721699 0.00118705 1.10254 0 1.5V5.5C0.00118705 5.89746 0.159603 6.2783 0.440651 6.55935C0.721699 6.8404 1.10254 6.99881 1.5 7H2V8H1.5C1.10254 8.00119 0.721699 8.1596 0.440651 8.44065C0.159603 8.7217 0.00118705 9.10254 0 9.5V13.5C0.00118705 13.8975 0.159603 14.2783 0.440651 14.5593C0.721699 14.8404 1.10254 14.9988 1.5 15H2V16H1.5C1.10254 16.0012 0.721699 16.1596 0.440651 16.4407C0.159603 16.7217 0.00118705 17.1025 0 17.5V21.5C0.00118705 21.8975 0.159603 22.2783 0.440651 22.5593C0.721699 22.8404 1.10254 22.9988 1.5 23H11V27C11 28.97 15.78 30 20.5 30C25.22 30 30 28.97 30 27V12C30 10.085 25.495 9.065 20.91 9.005ZM1.5 6C1.36739 6 1.24021 5.94732 1.14645 5.85355C1.05268 5.75979 1 5.63261 1 5.5V1.5C1 1.36739 1.05268 1.24021 1.14645 1.14645C1.24021 1.05268 1.36739 1 1.5 1H19.5C19.6326 1 19.7598 1.05268 19.8536 1.14645C19.9473 1.24021 20 1.36739 20 1.5V5.5C20 5.63261 19.9473 5.75979 19.8536 5.85355C19.7598 5.94732 19.6326 6 19.5 6H1.5ZM18 7V8H16V7H18ZM15 7V8H6V7H15ZM5 7V8H3V7H5ZM11 22H1.5C1.36739 22 1.24021 21.9473 1.14645 21.8536C1.05268 21.7598 1 21.6326 1 21.5V17.5C1 17.3674 1.05268 17.2402 1.14645 17.1464C1.24021 17.0527 1.36739 17 1.5 17H11V22ZM3 16V15H5V16H3ZM11 16H6V15H11V16ZM11 12V14H1.5C1.36739 14 1.24021 13.9473 1.14645 13.8536C1.05268 13.7598 1 13.6326 1 13.5V9.5C1 9.36739 1.05268 9.24021 1.14645 9.14645C1.24021 9.05268 1.36739 9 1.5 9H19.5C19.5238 9.00259 19.5472 9.00762 19.57 9.015C15.17 9.14 11 10.16 11 12ZM29 27C29 27.68 26 29 20.5 29C15 29 12 27.68 12 27V23.41C13.645 24.455 17.08 25 20.5 25C23.92 25 27.355 24.455 29 23.41V27ZM29 22C29 22.68 26 24 20.5 24C15 24 12 22.68 12 22V18.41C13.645 19.455 17.08 20 20.5 20C23.92 20 27.355 19.455 29 18.41V22ZM29 17C29 17.68 26 19 20.5 19C15 19 12 17.68 12 17V13.41C13.645 14.455 17.08 15 20.5 15C23.92 15 27.355 14.455 29 13.41V17ZM20.5 14C15 14 12 12.68 12 12C12 11.32 15 10 20.5 10C26 10 29 11.32 29 12C29 12.68 26 14 20.5 14Z" />
  <path d="M20 16.5H21V17.5H20V16.5Z" />
  <path d="M20 22H21V23H20V22Z" />
  <path d="M20 26.5H21V27.5H20V26.5Z" />
  <path d="M4.5 10H2.5C2.36739 10 2.24021 10.0527 2.14645 10.1464C2.05268 10.2402 2 10.3674 2 10.5V12.5C2 12.6326 2.05268 12.7598 2.14645 12.8536C2.24021 12.9473 2.36739 13 2.5 13H4.5C4.63261 13 4.75979 12.9473 4.85355 12.8536C4.94732 12.7598 5 12.6326 5 12.5V10.5C5 10.3674 4.94732 10.2402 4.85355 10.1464C4.75979 10.0527 4.63261 10 4.5 10ZM4 12H3V11H4V12Z" />
  <path d="M8.5 10H6.5C6.36739 10 6.24022 10.0527 6.14645 10.1464C6.05268 10.2402 6 10.3674 6 10.5V12.5C6 12.6326 6.05268 12.7598 6.14645 12.8536C6.24022 12.9473 6.36739 13 6.5 13H8.5C8.63261 13 8.75979 12.9473 8.85355 12.8536C8.94732 12.7598 9 12.6326 9 12.5V10.5C9 10.3674 8.94732 10.2402 8.85355 10.1464C8.75979 10.0527 8.63261 10 8.5 10ZM8 12H7V11H8V12Z" />
  <path d="M4.5 2H2.5C2.36739 2 2.24021 2.05268 2.14645 2.14645C2.05268 2.24021 2 2.36739 2 2.5V4.5C2 4.63261 2.05268 4.75978 2.14645 4.85355C2.24021 4.94732 2.36739 5 2.5 5H4.5C4.63261 5 4.75979 4.94732 4.85355 4.85355C4.94732 4.75978 5 4.63261 5 4.5V2.5C5 2.36739 4.94732 2.24021 4.85355 2.14645C4.75979 2.05268 4.63261 2 4.5 2ZM4 4H3V3H4V4Z" />
  <path d="M8.5 2H6.5C6.36739 2 6.24022 2.05268 6.14645 2.14645C6.05268 2.24021 6 2.36739 6 2.5V4.5C6 4.63261 6.05268 4.75978 6.14645 4.85355C6.24022 4.94732 6.36739 5 6.5 5H8.5C8.63261 5 8.75979 4.94732 8.85355 4.85355C8.94732 4.75978 9 4.63261 9 4.5V2.5C9 2.36739 8.94732 2.24021 8.85355 2.14645C8.75979 2.05268 8.63261 2 8.5 2ZM8 4H7V3H8V4Z" />
  <path d="M10 2H17V3H10V2Z" />
  <path d="M18 2H19V3H18V2Z" />
  <path d="M10 4H17V5H10V4Z" />
  <path d="M18 4H19V5H18V4Z" />
  <path d="M4.5 18H2.5C2.36739 18 2.24021 18.0527 2.14645 18.1464C2.05268 18.2402 2 18.3674 2 18.5V20.5C2 20.6326 2.05268 20.7598 2.14645 20.8536C2.24021 20.9473 2.36739 21 2.5 21H4.5C4.63261 21 4.75979 20.9473 4.85355 20.8536C4.94732 20.7598 5 20.6326 5 20.5V18.5C5 18.3674 4.94732 18.2402 4.85355 18.1464C4.75979 18.0527 4.63261 18 4.5 18ZM4 20H3V19H4V20Z" />
  <path d="M8.5 18H6.5C6.36739 18 6.24022 18.0527 6.14645 18.1464C6.05268 18.2402 6 18.3674 6 18.5V20.5C6 20.6326 6.05268 20.7598 6.14645 20.8536C6.24022 20.9473 6.36739 21 6.5 21H8.5C8.63261 21 8.75979 20.9473 8.85355 20.8536C8.94732 20.7598 9 20.6326 9 20.5V18.5C9 18.3674 8.94732 18.2402 8.85355 18.1464C8.75979 18.0527 8.63261 18 8.5 18ZM8 20H7V19H8V20Z" />
</svg>
