<svg width="30" height="30" viewBox="0 0 30 30" xmlns="http://www.w3.org/2000/svg">
  <path d="M30 15.1176C30 13.7187 28.8619 12.5806 27.4635 12.5806C26.9831 12.5806 26.5268 12.719 26.129 12.9668V1.45161C26.129 0.65129 25.4777 0 24.6774 0H3.3871C2.58677 0 1.93548 0.65129 1.93548 1.45161V5.80645H1.45161C0.65129 5.80645 0 6.45774 0 7.25806V15C0 15.8003 0.65129 16.4516 1.45161 16.4516H1.93548V28.5484C1.93548 29.3487 2.58677 30 3.3871 30H24.6774C25.4777 30 26.129 29.3487 26.129 28.5484V20.039L29.2573 16.9108C29.7363 16.4318 30 15.795 30 15.1176ZM3.3871 0.967742H24.6774C24.9445 0.967742 25.1613 1.185 25.1613 1.45161V3.87097H2.90323V1.45161C2.90323 1.185 3.12 0.967742 3.3871 0.967742ZM0.967742 15V7.25806C0.967742 6.99145 1.18452 6.77419 1.45161 6.77419H12.0968C12.3639 6.77419 12.5806 6.99145 12.5806 7.25806V15C12.5806 15.2666 12.3639 15.4839 12.0968 15.4839H1.45161C1.18452 15.4839 0.967742 15.2666 0.967742 15ZM25.1613 28.5484C25.1613 28.8155 24.9445 29.0323 24.6774 29.0323H3.3871C3.12 29.0323 2.90323 28.8155 2.90323 28.5484V16.4516H12.0968C12.8971 16.4516 13.5484 15.8003 13.5484 15V7.25806C13.5484 6.45774 12.8971 5.80645 12.0968 5.80645H2.90323V4.83871H25.1613V13.8319L24.1935 14.7997V11.6129H15.4839V16.4516H22.5416L15.0281 23.9652L14.43 28.1506L18.6155 27.5526L25.1613 21.0068V28.5484ZM15.826 25.2198L17.3608 26.7547L15.5705 27.0102L15.826 25.2198ZM18.3871 26.4126L17.6197 25.6452L25.6452 17.6197L26.4126 18.3871L18.3871 26.4126ZM16.9355 24.961L16.1681 24.1935L24.1935 16.1681L24.961 16.9355L16.9355 24.961ZM23.2258 15.4839H16.4516V12.5806H23.2258V15.4839ZM28.5731 16.2266L27.0968 17.7029L24.8777 15.4839L26.354 14.0081C26.6497 13.7115 27.044 13.5484 27.4635 13.5484C28.3287 13.5484 29.0323 14.2524 29.0323 15.1176C29.0323 15.5308 28.8648 15.9348 28.5731 16.2266Z" />
  <path d="M5.32258 1.93548H6.29032V2.90323H5.32258V1.93548Z" />
  <path d="M3.3871 1.93548H4.35484V2.90323H3.3871V1.93548Z" />
  <path d="M7.25806 1.93548H8.22581V2.90323H7.25806V1.93548Z" />
  <path d="M5.35307 13.8824L7.29327 8.07406L8.2112 8.38068L6.271 14.189L5.35307 13.8824Z" />
  <path d="M8.85145 9.53565L10.4448 11.129L8.85145 12.7224L9.53565 13.4066L11.8132 11.129L9.53565 8.85145L8.85145 9.53565Z" />
  <path d="M4.01275 8.85145L1.73517 11.129L4.01275 13.4066L4.69694 12.7224L3.10356 11.129L4.69694 9.53565L4.01275 8.85145Z" />
  <path d="M24.1935 5.80645H15.4839V10.6452H24.1935V5.80645ZM23.2258 9.67742H16.4516V6.77419H23.2258V9.67742Z" />
  <path d="M3.87097 27.0968H11.6129V28.0645H3.87097V27.0968Z" />
  <path d="M3.87097 25.1613H13.5484V26.129H3.87097V25.1613Z" />
  <path d="M4.83871 24.1935H5.80645V23.2258H6.77419V22.2581H5.80645V17.4194H4.83871V22.2581H3.87097V23.2258H4.83871V24.1935Z" />
  <path d="M8.70968 24.1935H9.67742V19.3548H10.6452V18.3871H9.67742V17.4194H8.70968V18.3871H7.74194V19.3548H8.70968V24.1935Z" />
  <path d="M14.5161 21.2903V20.3226H13.5484V17.4194H12.5806V20.3226H11.6129V21.2903H12.5806V24.1935H13.5484V21.2903H14.5161Z" />
  <path d="M12.5806 27.0968H13.5484V28.0645H12.5806V27.0968Z" />
  <path d="M23.2258 23.2258H24.1935V24.1935H23.2258V23.2258Z" />
  <path d="M23.2258 27.0968H24.1935V28.0645H23.2258V27.0968Z" />
  <path d="M23.2258 25.1613H24.1935V26.129H23.2258V25.1613Z" />
</svg>
