<svg width="30" height="30" viewBox="0 0 30 30" xmlns="http://www.w3.org/2000/svg">
  <path d="M11.129 21.7742C11.4161 21.7742 11.6968 21.6891 11.9355 21.5296C12.1742 21.37 12.3603 21.1433 12.4701 20.8781C12.58 20.6128 12.6088 20.321 12.5527 20.0394C12.4967 19.7578 12.3585 19.4991 12.1555 19.2961C11.9525 19.0931 11.6938 18.9549 11.4122 18.8989C11.1306 18.8428 10.8388 18.8716 10.5735 18.9815C10.3083 19.0913 10.0816 19.2774 9.92206 19.5161C9.76256 19.7548 9.67742 20.0355 9.67742 20.3226C9.67742 20.7076 9.83036 21.0768 10.1026 21.349C10.3748 21.6213 10.744 21.7742 11.129 21.7742ZM11.129 19.8387C11.2247 19.8387 11.3183 19.8671 11.3979 19.9203C11.4774 19.9734 11.5394 20.049 11.5761 20.1374C11.6127 20.2258 11.6223 20.3231 11.6036 20.417C11.5849 20.5108 11.5388 20.5971 11.4712 20.6647C11.4035 20.7324 11.3173 20.7785 11.2234 20.7972C11.1296 20.8158 11.0323 20.8062 10.9439 20.7696C10.8554 20.733 10.7799 20.671 10.7267 20.5914C10.6735 20.5118 10.6452 20.4183 10.6452 20.3226C10.6452 20.1943 10.6961 20.0712 10.7869 19.9804C10.8776 19.8897 11.0007 19.8387 11.129 19.8387Z" />
  <path d="M7.25806 21.7742C7.54516 21.7742 7.82582 21.6891 8.06453 21.5296C8.30325 21.37 8.48931 21.1433 8.59918 20.8781C8.70905 20.6128 8.73779 20.321 8.68178 20.0394C8.62577 19.7578 8.48752 19.4991 8.28451 19.2961C8.0815 19.0931 7.82284 18.9549 7.54126 18.8989C7.25967 18.8428 6.9678 18.8716 6.70256 18.9815C6.43731 19.0913 6.2106 19.2774 6.05109 19.5161C5.89159 19.7548 5.80645 20.0355 5.80645 20.3226C5.80645 20.7076 5.95939 21.0768 6.23162 21.349C6.50385 21.6213 6.87307 21.7742 7.25806 21.7742ZM7.25806 19.8387C7.35376 19.8387 7.44731 19.8671 7.52689 19.9203C7.60646 19.9734 7.66848 20.049 7.7051 20.1374C7.74172 20.2258 7.75131 20.3231 7.73264 20.417C7.71397 20.5108 7.66788 20.5971 7.60021 20.6647C7.53254 20.7324 7.44632 20.7785 7.35246 20.7972C7.2586 20.8158 7.16131 20.8062 7.07289 20.7696C6.98448 20.733 6.90891 20.671 6.85574 20.5914C6.80257 20.5118 6.77419 20.4183 6.77419 20.3226C6.77419 20.1943 6.82517 20.0712 6.91592 19.9804C7.00666 19.8897 7.12973 19.8387 7.25806 19.8387Z" />
  <path d="M1.93548 18.871H4.83871V19.8387H1.93548V18.871Z" />
  <path d="M1.93548 20.8065H4.83871V21.7742H1.93548V20.8065Z" />
  <path d="M11.129 28.5484C11.4161 28.5484 11.6968 28.4633 11.9355 28.3037C12.1742 28.1442 12.3603 27.9175 12.4701 27.6523C12.58 27.387 12.6088 27.0952 12.5527 26.8136C12.4967 26.532 12.3585 26.2733 12.1555 26.0703C11.9525 25.8673 11.6938 25.7291 11.4122 25.6731C11.1306 25.617 10.8388 25.6458 10.5735 25.7557C10.3083 25.8655 10.0816 26.0516 9.92206 26.2903C9.76256 26.529 9.67742 26.8097 9.67742 27.0968C9.67742 27.4818 9.83036 27.851 10.1026 28.1232C10.3748 28.3954 10.744 28.5484 11.129 28.5484ZM11.129 26.6129C11.2247 26.6129 11.3183 26.6413 11.3979 26.6945C11.4774 26.7476 11.5394 26.8232 11.5761 26.9116C11.6127 27 11.6223 27.0973 11.6036 27.1912C11.5849 27.285 11.5388 27.3713 11.4712 27.4389C11.4035 27.5066 11.3173 27.5527 11.2234 27.5713C11.1296 27.59 11.0323 27.5804 10.9439 27.5438C10.8554 27.5072 10.7799 27.4452 10.7267 27.3656C10.6735 27.286 10.6452 27.1925 10.6452 27.0968C10.6452 26.9684 10.6961 26.8454 10.7869 26.7546C10.8776 26.6639 11.0007 26.6129 11.129 26.6129Z" />
  <path d="M7.25806 28.5484C7.54516 28.5484 7.82582 28.4633 8.06453 28.3037C8.30325 28.1442 8.48931 27.9175 8.59918 27.6523C8.70905 27.387 8.73779 27.0952 8.68178 26.8136C8.62577 26.532 8.48752 26.2733 8.28451 26.0703C8.0815 25.8673 7.82284 25.7291 7.54126 25.6731C7.25967 25.617 6.9678 25.6458 6.70256 25.7557C6.43731 25.8655 6.2106 26.0516 6.05109 26.2903C5.89159 26.529 5.80645 26.8097 5.80645 27.0968C5.80645 27.4818 5.95939 27.851 6.23162 28.1232C6.50385 28.3954 6.87307 28.5484 7.25806 28.5484ZM7.25806 26.6129C7.35376 26.6129 7.44731 26.6413 7.52689 26.6945C7.60646 26.7476 7.66848 26.8232 7.7051 26.9116C7.74172 27 7.75131 27.0973 7.73264 27.1912C7.71397 27.285 7.66788 27.3713 7.60021 27.4389C7.53254 27.5066 7.44632 27.5527 7.35246 27.5713C7.2586 27.59 7.16131 27.5804 7.07289 27.5438C6.98448 27.5072 6.90891 27.4452 6.85574 27.3656C6.80257 27.286 6.77419 27.1925 6.77419 27.0968C6.77419 26.9684 6.82517 26.8454 6.91592 26.7546C7.00666 26.6639 7.12973 26.6129 7.25806 26.6129Z" />
  <path d="M1.93548 25.6452H4.83871V26.6129H1.93548V25.6452Z" />
  <path d="M1.93548 27.5806H4.83871V28.5484H1.93548V27.5806Z" />
  <path d="M29.5161 23.2258C29.6445 23.2258 29.7675 23.1748 29.8583 23.0841C29.949 22.9933 30 22.8703 30 22.7419V17.9032C30 17.7749 29.949 17.6518 29.8583 17.5611C29.7675 17.4703 29.6445 17.4194 29.5161 17.4194H27.5806V15.8806C27.8609 15.7789 28.103 15.5934 28.2741 15.3493C28.4452 15.1051 28.537 14.8143 28.537 14.5161C28.537 14.218 28.4452 13.9271 28.2741 13.683C28.103 13.4389 27.8609 13.2533 27.5806 13.1516V11.0419C27.8609 10.9402 28.103 10.7547 28.2741 10.5106C28.4452 10.2664 28.537 9.97554 28.537 9.67742C28.537 9.3793 28.4452 9.0884 28.2741 8.84427C28.103 8.60014 27.8609 8.41461 27.5806 8.3129V6.77419C27.5806 6.51753 27.4787 6.27138 27.2972 6.0899C27.1157 5.90841 26.8696 5.80645 26.6129 5.80645H22.8629C22.3479 4.1329 21.3124 2.66733 19.9069 1.62301C18.5014 0.578693 16.7994 0.0101109 15.0484 5.26697e-08H15C13.2408 -0.000198966 11.5278 0.563626 10.1126 1.60869C8.69739 2.65376 7.65452 4.12502 7.1371 5.80645H3.3871C3.13044 5.80645 2.88429 5.90841 2.7028 6.0899C2.52131 6.27138 2.41935 6.51753 2.41935 6.77419V8.3129C2.13912 8.41461 1.897 8.60014 1.72589 8.84427C1.55479 9.0884 1.463 9.3793 1.463 9.67742C1.463 9.97554 1.55479 10.2664 1.72589 10.5106C1.897 10.7547 2.13912 10.9402 2.41935 11.0419V13.1516C2.13912 13.2533 1.897 13.4389 1.72589 13.683C1.55479 13.9271 1.463 14.218 1.463 14.5161C1.463 14.8143 1.55479 15.1051 1.72589 15.3493C1.897 15.5934 2.13912 15.7789 2.41935 15.8806V17.4194H0.483871C0.35554 17.4194 0.232466 17.4703 0.141723 17.5611C0.0509791 17.6518 0 17.7749 0 17.9032V22.7419C0 22.8703 0.0509791 22.9933 0.141723 23.0841C0.232466 23.1748 0.35554 23.2258 0.483871 23.2258H0.967742V24.1935H0.483871C0.35554 24.1935 0.232466 24.2445 0.141723 24.3353C0.0509791 24.426 0 24.5491 0 24.6774V29.5161C0 29.6445 0.0509791 29.7675 0.141723 29.8583C0.232466 29.949 0.35554 30 0.483871 30H14.0323C14.1606 30 14.2837 29.949 14.3744 29.8583C14.4651 29.7675 14.5161 29.6445 14.5161 29.5161V24.6774C14.5161 24.5491 14.4651 24.426 14.3744 24.3353C14.2837 24.2445 14.1606 24.1935 14.0323 24.1935H13.5484V23.2258H14.0323C14.1606 23.2258 14.2837 23.1748 14.3744 23.0841C14.4651 22.9933 14.5161 22.8703 14.5161 22.7419V17.9032C14.5161 17.7749 14.4651 17.6518 14.3744 17.5611C14.2837 17.4703 14.1606 17.4194 14.0323 17.4194H3.3871V15.8806C3.66733 15.7789 3.90945 15.5934 4.08056 15.3493C4.25167 15.1051 4.34346 14.8143 4.34346 14.5161C4.34346 14.218 4.25167 13.9271 4.08056 13.683C3.90945 13.4389 3.66733 13.2533 3.3871 13.1516V11.0419C3.66733 10.9402 3.90945 10.7547 4.08056 10.5106C4.25167 10.2664 4.34346 9.97554 4.34346 9.67742C4.34346 9.3793 4.25167 9.0884 4.08056 8.84427C3.90945 8.60014 3.66733 8.41461 3.3871 8.3129V6.77419H6.90968C6.8227 7.25325 6.77737 7.73893 6.77419 8.22581C6.77419 10.4074 7.64084 12.4997 9.18348 14.0423C10.7261 15.585 12.8184 16.4516 15 16.4516C17.1816 16.4516 19.2739 15.585 20.8165 14.0423C22.3592 12.4997 23.2258 10.4074 23.2258 8.22581C23.2226 7.73893 23.1773 7.25325 23.0903 6.77419H26.6129V8.3129C26.3327 8.41461 26.0905 8.60014 25.9194 8.84427C25.7483 9.0884 25.6565 9.3793 25.6565 9.67742C25.6565 9.97554 25.7483 10.2664 25.9194 10.5106C26.0905 10.7547 26.3327 10.9402 26.6129 11.0419V13.1516C26.3327 13.2533 26.0905 13.4389 25.9194 13.683C25.7483 13.9271 25.6565 14.218 25.6565 14.5161C25.6565 14.8143 25.7483 15.1051 25.9194 15.3493C26.0905 15.5934 26.3327 15.7789 26.6129 15.8806V17.4194H15.9677C15.8394 17.4194 15.7163 17.4703 15.6256 17.5611C15.5349 17.6518 15.4839 17.7749 15.4839 17.9032V22.7419C15.4839 22.8703 15.5349 22.9933 15.6256 23.0841C15.7163 23.1748 15.8394 23.2258 15.9677 23.2258H16.4516V24.1935H15.9677C15.8394 24.1935 15.7163 24.2445 15.6256 24.3353C15.5349 24.426 15.4839 24.5491 15.4839 24.6774V29.5161C15.4839 29.6445 15.5349 29.7675 15.6256 29.8583C15.7163 29.949 15.8394 30 15.9677 30H29.5161C29.6445 30 29.7675 29.949 29.8583 29.8583C29.949 29.7675 30 29.6445 30 29.5161V24.6774C30 24.5491 29.949 24.426 29.8583 24.3353C29.7675 24.2445 29.6445 24.1935 29.5161 24.1935H29.0323V23.2258H29.5161ZM13.5484 29.0323H0.967742V25.1613H13.5484V29.0323ZM12.5806 24.1935H1.93548V23.2258H12.5806V24.1935ZM13.5484 22.2581H0.967742V18.3871H13.5484V22.2581ZM2.90323 15C2.80753 15 2.71397 14.9716 2.6344 14.9185C2.55483 14.8653 2.49281 14.7897 2.45619 14.7013C2.41956 14.6129 2.40998 14.5156 2.42865 14.4217C2.44732 14.3279 2.49341 14.2417 2.56108 14.174C2.62875 14.1063 2.71497 14.0602 2.80883 14.0416C2.90269 14.0229 2.99998 14.0325 3.0884 14.0691C3.17681 14.1057 3.25238 14.1677 3.30555 14.2473C3.35872 14.3269 3.3871 14.4204 3.3871 14.5161C3.3871 14.6445 3.33612 14.7675 3.24537 14.8583C3.15463 14.949 3.03156 15 2.90323 15ZM2.90323 10.1613C2.80753 10.1613 2.71397 10.1329 2.6344 10.0797C2.55483 10.0266 2.49281 9.951 2.45619 9.86259C2.41956 9.77417 2.40998 9.67688 2.42865 9.58302C2.44732 9.48916 2.49341 9.40294 2.56108 9.33527C2.62875 9.2676 2.71497 9.22152 2.80883 9.20285C2.90269 9.18418 2.99998 9.19376 3.0884 9.23038C3.17681 9.267 3.25238 9.32902 3.30555 9.4086C3.35872 9.48817 3.3871 9.58172 3.3871 9.67742C3.3871 9.80575 3.33612 9.92882 3.24537 10.0196C3.15463 10.1103 3.03156 10.1613 2.90323 10.1613ZM14.5161 1.65V4.83871C13.8229 4.79316 13.1392 4.65315 12.4839 4.42258C12.9183 3.52523 13.5006 2.70737 14.2065 2.00323L14.5161 1.65ZM14.5161 5.80645V7.74194H11.6371C11.6839 6.91676 11.8468 6.1023 12.121 5.32258C12.8923 5.59701 13.6988 5.75994 14.5161 5.80645ZM14.5161 8.70968V10.6452C13.6906 10.6894 12.8758 10.8523 12.0968 11.129C11.8226 10.3493 11.6597 9.53486 11.6129 8.70968H14.5161ZM14.5161 11.6129V14.7823L14.2065 14.5161C13.4962 13.7974 12.9136 12.9629 12.4839 12.0484C13.1383 11.8112 13.822 11.6647 14.5161 11.6129ZM15.4839 14.7823V11.6129C16.1771 11.6585 16.8608 11.7985 17.5161 12.029C17.0883 12.9504 16.5056 13.7916 15.7935 14.5161L15.4839 14.7823ZM15.4839 10.6452V8.70968H18.3871C18.3416 9.54291 18.1787 10.3655 17.9032 11.1532C17.1261 10.866 16.3109 10.6948 15.4839 10.6452ZM15.4839 7.74194V5.80645C16.3097 5.76456 17.1248 5.60153 17.9032 5.32258C18.1765 6.10253 18.3394 6.91687 18.3871 7.74194H15.4839ZM15.4839 4.83871V1.65L15.7935 1.95968C16.5016 2.6711 17.084 3.4973 17.5161 4.40323C16.8617 4.6404 16.178 4.78692 15.4839 4.83871ZM16.4516 1.29677L16.2677 1.10806C17.6524 1.36152 18.9334 2.01212 19.9548 2.98065L19.8387 3.09194C19.3918 3.45588 18.9048 3.76758 18.3871 4.02097C17.9128 3.00317 17.2662 2.07499 16.4758 1.27742L16.4516 1.29677ZM13.5 1.29677C12.701 2.09243 12.0461 3.02072 11.5645 4.04032C11.0628 3.77769 10.5921 3.45957 10.1613 3.09194L10.0065 2.96129C11.0279 1.99277 12.3089 1.34216 13.6935 1.08871L13.5 1.29677ZM9.53226 3.85645C10.0457 4.27866 10.6058 4.64069 11.2016 4.93548C10.8895 5.84032 10.7102 6.78564 10.6694 7.74194H7.76613C7.86331 6.25206 8.41942 4.82883 9.35806 3.66774L9.53226 3.85645ZM10.6694 8.70968C10.7161 9.6737 10.9036 10.6257 11.2258 11.5355C10.63 11.8303 10.0699 12.1923 9.55645 12.6145L9.35806 12.7839C8.41942 11.6228 7.86331 10.1996 7.76613 8.70968H10.6694ZM10.1855 13.3597C10.6248 12.9973 11.1037 12.6856 11.6129 12.4306C12.0945 13.4503 12.7494 14.3785 13.5484 15.1742L13.7323 15.3629C12.3476 15.1095 11.0666 14.4588 10.0452 13.4903L10.1855 13.3597ZM16.4758 15.1742C17.2748 14.3785 17.9297 13.4503 18.4113 12.4306C18.9205 12.6856 19.3994 12.9973 19.8387 13.3597L19.9935 13.4903C18.9721 14.4588 17.6911 15.1095 16.3065 15.3629L16.4758 15.1742ZM20.4435 12.6145C19.9301 12.1923 19.37 11.8303 18.7742 11.5355C19.1047 10.627 19.3003 9.67491 19.3548 8.70968H22.2581C22.1609 10.1996 21.6048 11.6228 20.6661 12.7839L20.4435 12.6145ZM19.3548 7.74194C19.3081 6.77791 19.1206 5.8259 18.7984 4.91613C19.3942 4.62134 19.9543 4.2593 20.4677 3.8371L20.6661 3.66774C21.6048 4.82883 22.1609 6.25206 22.2581 7.74194H19.3548ZM27.0968 9.19355C27.1925 9.19355 27.286 9.22193 27.3656 9.27509C27.4452 9.32826 27.5072 9.40383 27.5438 9.49225C27.5804 9.58067 27.59 9.67796 27.5713 9.77182C27.5527 9.86568 27.5066 9.9519 27.4389 10.0196C27.3713 10.0872 27.285 10.1333 27.1912 10.152C27.0973 10.1707 27 10.1611 26.9116 10.1245C26.8232 10.0878 26.7476 10.0258 26.6945 9.94624C26.6413 9.86667 26.6129 9.77312 26.6129 9.67742C26.6129 9.54909 26.6639 9.42601 26.7546 9.33527C26.8454 9.24453 26.9684 9.19355 27.0968 9.19355ZM27.0968 14.0323C27.1925 14.0323 27.286 14.0606 27.3656 14.1138C27.4452 14.167 27.5072 14.2425 27.5438 14.331C27.5804 14.4194 27.59 14.5167 27.5713 14.6105C27.5527 14.7044 27.5066 14.7906 27.4389 14.8583C27.3713 14.9259 27.285 14.972 27.1912 14.9907C27.0973 15.0094 27 14.9998 26.9116 14.9632C26.8232 14.9265 26.7476 14.8645 26.6945 14.785C26.6413 14.7054 26.6129 14.6118 26.6129 14.5161C26.6129 14.3878 26.6639 14.2647 26.7546 14.174C26.8454 14.0832 26.9684 14.0323 27.0968 14.0323ZM16.4516 18.3871H29.0323V22.2581H16.4516V18.3871ZM29.0323 29.0323H16.4516V25.1613H29.0323V29.0323ZM28.0645 24.1935H17.4194V23.2258H28.0645V24.1935Z" />
  <path d="M26.6129 18.871C26.3258 18.871 26.0452 18.9561 25.8064 19.1156C25.5677 19.2751 25.3817 19.5018 25.2718 19.7671C25.1619 20.0323 25.1332 20.3242 25.1892 20.6058C25.2452 20.8874 25.3834 21.146 25.5865 21.349C25.7895 21.552 26.0481 21.6903 26.3297 21.7463C26.6113 21.8023 26.9032 21.7736 27.1684 21.6637C27.4337 21.5538 27.6604 21.3678 27.8199 21.1291C27.9794 20.8903 28.0645 20.6097 28.0645 20.3226C28.0645 19.9376 27.9116 19.5684 27.6394 19.2961C27.3671 19.0239 26.9979 18.871 26.6129 18.871ZM26.6129 20.8065C26.5172 20.8065 26.4237 20.7781 26.3441 20.7249C26.2645 20.6717 26.2025 20.5962 26.1659 20.5078C26.1292 20.4193 26.1197 20.322 26.1383 20.2282C26.157 20.1343 26.2031 20.0481 26.2708 19.9804C26.3384 19.9128 26.4246 19.8667 26.5185 19.848C26.6124 19.8293 26.7097 19.8389 26.7981 19.8755C26.8865 19.9122 26.9621 19.9742 27.0152 20.0538C27.0684 20.1333 27.0968 20.2269 27.0968 20.3226C27.0968 20.4509 27.0458 20.574 26.9551 20.6647C26.8643 20.7555 26.7412 20.8065 26.6129 20.8065Z" />
  <path d="M22.7419 18.871C22.4548 18.871 22.1742 18.9561 21.9355 19.1156C21.6967 19.2751 21.5107 19.5018 21.4008 19.7671C21.291 20.0323 21.2622 20.3242 21.3182 20.6058C21.3742 20.8874 21.5125 21.146 21.7155 21.349C21.9185 21.552 22.1772 21.6903 22.4587 21.7463C22.7403 21.8023 23.0322 21.7736 23.2974 21.6637C23.5627 21.5538 23.7894 21.3678 23.9489 21.1291C24.1084 20.8903 24.1936 20.6097 24.1936 20.3226C24.1936 19.9376 24.0406 19.5684 23.7684 19.2961C23.4962 19.0239 23.1269 18.871 22.7419 18.871ZM22.7419 20.8065C22.6462 20.8065 22.5527 20.7781 22.4731 20.7249C22.3935 20.6717 22.3315 20.5962 22.2949 20.5078C22.2583 20.4193 22.2487 20.322 22.2674 20.2282C22.286 20.1343 22.3321 20.0481 22.3998 19.9804C22.4675 19.9128 22.5537 19.8667 22.6475 19.848C22.7414 19.8293 22.8387 19.8389 22.9271 19.8755C23.0155 19.9122 23.0911 19.9742 23.1443 20.0538C23.1974 20.1333 23.2258 20.2269 23.2258 20.3226C23.2258 20.4509 23.1748 20.574 23.0841 20.6647C22.9933 20.7555 22.8703 20.8065 22.7419 20.8065Z" />
  <path d="M17.4194 18.871H20.3226V19.8387H17.4194V18.871Z" />
  <path d="M17.4194 20.8065H20.3226V21.7742H17.4194V20.8065Z" />
  <path d="M26.6129 28.5484C26.9 28.5484 27.1807 28.4633 27.4194 28.3037C27.6581 28.1442 27.8442 27.9175 27.954 27.6523C28.0639 27.387 28.0926 27.0952 28.0366 26.8136C27.9806 26.532 27.8424 26.2733 27.6394 26.0703C27.4363 25.8673 27.1777 25.7291 26.8961 25.6731C26.6145 25.617 26.3226 25.6458 26.0574 25.7557C25.7922 25.8655 25.5654 26.0516 25.4059 26.2903C25.2464 26.529 25.1613 26.8097 25.1613 27.0968C25.1613 27.4818 25.3142 27.851 25.5865 28.1232C25.8587 28.3954 26.2279 28.5484 26.6129 28.5484ZM26.6129 26.6129C26.7086 26.6129 26.8022 26.6413 26.8817 26.6945C26.9613 26.7476 27.0233 26.8232 27.0599 26.9116C27.0966 27 27.1062 27.0973 27.0875 27.1912C27.0688 27.285 27.0227 27.3713 26.9551 27.4389C26.8874 27.5066 26.8012 27.5527 26.7073 27.5713C26.6134 27.59 26.5162 27.5804 26.4277 27.5438C26.3393 27.5072 26.2638 27.4452 26.2106 27.3656C26.1574 27.286 26.129 27.1925 26.129 27.0968C26.129 26.9684 26.18 26.8454 26.2708 26.7546C26.3615 26.6639 26.4846 26.6129 26.6129 26.6129Z" />
  <path d="M22.7419 28.5484C23.029 28.5484 23.3097 28.4633 23.5484 28.3037C23.7871 28.1442 23.9732 27.9175 24.0831 27.6523C24.1929 27.387 24.2217 27.0952 24.1657 26.8136C24.1097 26.532 23.9714 26.2733 23.7684 26.0703C23.5654 25.8673 23.3067 25.7291 23.0251 25.6731C22.7436 25.617 22.4517 25.6458 22.1864 25.7557C21.9212 25.8655 21.6945 26.0516 21.535 26.2903C21.3755 26.529 21.2903 26.8097 21.2903 27.0968C21.2903 27.4818 21.4433 27.851 21.7155 28.1232C21.9877 28.3954 22.3569 28.5484 22.7419 28.5484ZM22.7419 26.6129C22.8376 26.6129 22.9312 26.6413 23.0108 26.6945C23.0903 26.7476 23.1524 26.8232 23.189 26.9116C23.2256 27 23.2352 27.0973 23.2165 27.1912C23.1978 27.285 23.1518 27.3713 23.0841 27.4389C23.0164 27.5066 22.9302 27.5527 22.8363 27.5713C22.7425 27.59 22.6452 27.5804 22.5568 27.5438C22.4684 27.5072 22.3928 27.4452 22.3396 27.3656C22.2864 27.286 22.2581 27.1925 22.2581 27.0968C22.2581 26.9684 22.309 26.8454 22.3998 26.7546C22.4905 26.6639 22.6136 26.6129 22.7419 26.6129Z" />
  <path d="M17.4194 25.6452H20.3226V26.6129H17.4194V25.6452Z" />
  <path d="M17.4194 27.5806H20.3226V28.5484H17.4194V27.5806Z" />
</svg>
