<svg width="30" height="30" viewBox="0 0 30 30" xmlns="http://www.w3.org/2000/svg">
  <path d="M30 25.0528V21.3983L28.6001 21.0406C28.5904 21.017 28.5808 20.9933 28.5706 20.9699L29.3075 19.7279L26.7232 17.1436L25.4812 17.8805C25.4573 17.8704 25.4337 17.8607 25.4106 17.851L25.0528 16.4516H21.3983L21.0406 17.8515C21.017 17.8612 20.9933 17.8709 20.9699 17.881L19.7279 17.1441L17.1436 19.7284L17.8805 20.9704C17.8704 20.9943 17.8607 21.0179 17.851 21.0411L16.4516 21.3988V25.0533L17.8515 25.411C17.8612 25.4347 17.8709 25.4583 17.881 25.4817L17.1441 26.7237L19.7284 29.308L20.9704 28.5711C20.9943 28.5812 21.0179 28.5909 21.0411 28.6006L21.3988 30H25.0533L25.411 28.6001C25.4347 28.5904 25.4583 28.5808 25.4817 28.5706L26.7237 29.3075L29.308 26.7232L28.5711 25.4812C28.5812 25.4573 28.5909 25.4337 28.6006 25.4106L30 25.0528ZM28.0922 26.5709L26.5709 28.0922L25.5367 27.4786L25.304 27.5899C25.154 27.661 25.0006 27.7252 24.8428 27.781L24.599 27.8675L24.302 29.0323H22.1501L21.8531 27.8675L21.6093 27.781C21.4515 27.7257 21.2976 27.6614 21.1481 27.5899L20.9154 27.4786L19.8812 28.0922L18.3599 26.5709L18.9735 25.5367L18.8622 25.304C18.7911 25.154 18.7268 25.0006 18.6711 24.8428L18.5846 24.599L17.4194 24.302V22.1501L18.5841 21.8531L18.6706 21.6093C18.7259 21.4515 18.7902 21.2976 18.8618 21.1481L18.973 20.9154L18.3595 19.8812L19.8808 18.3599L20.9149 18.9735L21.1476 18.8622C21.2976 18.7911 21.451 18.7268 21.6088 18.6711L21.8526 18.5846L22.1496 17.4194H24.3015L24.5985 18.5841L24.8423 18.6706C25.0002 18.7259 25.154 18.7902 25.3035 18.8618L25.5362 18.973L26.5704 18.3595L28.0917 19.8808L27.4781 20.9149L27.5894 21.1476C27.6605 21.2976 27.7248 21.451 27.7805 21.6088L27.867 21.8526L29.0323 22.1496V24.3015L27.8675 24.5985L27.781 24.8423C27.7257 25.0002 27.6614 25.154 27.5899 25.3035L27.4786 25.5362L28.0922 26.5709Z" />
  <path d="M23.2258 19.3548C21.0914 19.3548 19.3548 21.0914 19.3548 23.2258C19.3548 25.3602 21.0914 27.0968 23.2258 27.0968C25.3602 27.0968 27.0968 25.3602 27.0968 23.2258C27.0968 21.0914 25.3602 19.3548 23.2258 19.3548ZM23.2258 26.129C21.6246 26.129 20.3226 24.827 20.3226 23.2258C20.3226 21.6246 21.6246 20.3226 23.2258 20.3226C24.827 20.3226 26.129 21.6246 26.129 23.2258C26.129 24.827 24.827 26.129 23.2258 26.129Z" />
  <path d="M23.2258 21.2903C22.1584 21.2903 21.2903 22.1584 21.2903 23.2258C21.2903 24.2933 22.1584 25.1613 23.2258 25.1613C24.2933 25.1613 25.1613 24.2933 25.1613 23.2258C25.1613 22.1584 24.2933 21.2903 23.2258 21.2903ZM23.2258 24.1935C22.6921 24.1935 22.2581 23.7595 22.2581 23.2258C22.2581 22.6921 22.6921 22.2581 23.2258 22.2581C23.7595 22.2581 24.1935 22.6921 24.1935 23.2258C24.1935 23.7595 23.7595 24.1935 23.2258 24.1935Z" />
  <path d="M12.2541 8.19297C12.4162 8.66809 12.6983 9.08699 13.0645 9.41611V9.8265L10.7638 10.6891C9.82461 11.0409 9.19355 11.9512 9.19355 12.9542V15.4839H20.8065V12.9542C20.8065 11.9512 20.1754 11.0409 19.2367 10.6886L16.9355 9.82603V9.41611C17.3017 9.08747 17.5838 8.66857 17.7459 8.19297C18.6576 8.03656 19.3548 7.24554 19.3548 6.29032V4.35484C19.3548 1.95391 17.4014 0 15 0C12.5986 0 10.6452 1.95391 10.6452 4.35484V6.29032C10.6452 7.24554 11.3424 8.03656 12.2541 8.19297ZM15.9677 10.0273L15 11.6401L14.0323 10.0273V9.99189C14.3356 10.0999 14.6603 10.1613 15 10.1613C15.3398 10.1613 15.6644 10.0994 15.9677 9.99189V10.0273ZM13.3407 10.756L14.3162 12.3812L13.3471 12.8656L12.721 10.9882L13.3407 10.756ZM19.8387 12.9542V14.5161H10.1613V12.9542C10.1613 12.3522 10.5398 11.8064 11.1033 11.5949L11.8147 11.3284L12.7819 14.2307L15 13.1217L17.2181 14.2307L18.1853 11.3284L18.8972 11.5954C19.4602 11.8064 19.8387 12.3522 19.8387 12.9542ZM17.279 10.9882L16.6529 12.8661L15.6838 12.3817L16.6593 10.756L17.279 10.9882ZM15 9.19355C13.9326 9.19355 13.0645 8.32551 13.0645 7.25806V5.28974C13.7728 5.21508 14.4412 4.95684 15 4.51739C15.5588 4.95731 16.2272 5.21508 16.9355 5.28974V7.25806C16.9355 8.32551 16.0674 9.19355 15 9.19355ZM17.9032 7.12363V5.45749C18.1912 5.62547 18.3871 5.93427 18.3871 6.2908C18.3871 6.64732 18.1912 6.95564 17.9032 7.12363ZM15 0.967742C16.8672 0.967742 18.3871 2.48716 18.3871 4.35484V4.62394C18.1012 4.45738 17.7735 4.35484 17.4194 4.35484H17.3362C16.5827 4.35484 15.8744 4.06163 15.3421 3.52886L15 3.18627L14.6579 3.52886C14.1251 4.06163 13.4173 4.35484 12.6638 4.35484H12.5806C12.2265 4.35484 11.8988 4.45738 11.6129 4.62394V4.35484C11.6129 2.48716 13.1328 0.967742 15 0.967742ZM12.0968 5.45702V7.12316C11.8088 6.95517 11.6129 6.64637 11.6129 6.28985C11.6129 5.93333 11.8088 5.625 12.0968 5.45702Z" />
  <path d="M0 30H9.67742V17.4194H0V30ZM0.967742 18.3871H8.70968V29.0323H0.967742V18.3871Z" />
  <path d="M1.93548 19.3548H7.74194V20.3226H1.93548V19.3548Z" />
  <path d="M1.93548 21.2903H2.90323V22.2581H1.93548V21.2903Z" />
  <path d="M3.87097 21.2903H7.74194V22.2581H3.87097V21.2903Z" />
  <path d="M1.93548 23.2258H7.74194V24.1936H1.93548V23.2258Z" />
  <path d="M1.93548 25.1613H7.74194V26.129H1.93548V25.1613Z" />
  <path d="M6.77419 27.0968H7.74194V28.0645H6.77419V27.0968Z" />
  <path d="M1.93548 27.0968H5.80645V28.0645H1.93548V27.0968Z" />
  <path d="M12.9228 21.6324L12.2385 20.9482L9.96094 23.2258L12.2385 25.5034L12.9228 24.8192L11.8133 23.7097H15.4839V22.7419H11.8133L12.9228 21.6324Z" />
  <path d="M5.32258 7.74194C5.32258 7.47543 5.53947 7.25806 5.80645 7.25806H8.02545L6.91595 8.36757L7.60018 9.05179L9.87777 6.77419L7.60018 4.4966L6.91595 5.18082L8.02545 6.29032H5.80645C5.00622 6.29032 4.35484 6.94171 4.35484 7.74194V16.4516H5.32258V7.74194Z" />
  <path d="M23.2258 7.74194V13.8319L22.1163 12.7224L21.4321 13.4066L23.7097 15.6842L25.9873 13.4066L25.3031 12.7224L24.1936 13.8319V7.74194C24.1936 6.94171 23.5422 6.29032 22.7419 6.29032H20.3226V7.25806H22.7419C23.0089 7.25806 23.2258 7.47543 23.2258 7.74194Z" />
</svg>
