<svg width="30" height="30" viewBox="0 0 30 30" xmlns="http://www.w3.org/2000/svg">
  <path d="M28.5 13.5C27.849 13.5 27.299 13.9195 27.092 14.5H24V13.5C24 13.2235 23.7765 13 23.5 13H22.648C21.971 13 21.548 12.5615 21.378 12.1515C21.208 11.7415 21.197 11.132 21.676 10.653L22.2785 10.0505C22.474 9.855 22.474 9.539 22.2785 9.3435L20.157 7.222C19.9615 7.0265 19.6455 7.0265 19.45 7.222L18.8475 7.8245C18.368 8.304 17.758 8.2925 17.349 8.1225C16.939 7.9525 16.5005 7.5295 16.5005 6.8525V6C16.5005 5.7235 16.277 5.5 16.0005 5.5H12.9085C12.7015 4.9195 12.1515 4.5 11.5005 4.5H1.5C0.673 4.5 0 5.173 0 6V24C0 24.827 0.673 25.5 1.5 25.5H11.5C12.151 25.5 12.701 25.0805 12.908 24.5H16C16.2765 24.5 16.5 24.2765 16.5 24V23.148C16.5 22.471 16.9385 22.048 17.3485 21.878C17.7575 21.7085 18.3675 21.6965 18.847 22.176L19.4495 22.7785C19.645 22.974 19.961 22.974 20.1565 22.7785L22.278 20.657C22.4735 20.4615 22.4735 20.1455 22.278 19.95L21.6755 19.3475C21.1965 18.8685 21.2075 18.259 21.3775 17.849C21.5475 17.439 21.9705 17 22.648 17H23.5C23.7765 17 24 16.7765 24 16.5V15.5H27.092C27.299 16.0805 27.849 16.5 28.5 16.5C29.327 16.5 30 15.827 30 15C30 14.173 29.327 13.5 28.5 13.5ZM13 10.7635C13.483 10.592 13.985 10.5 14.5 10.5C16.9815 10.5 19 12.5185 19 15C19 17.4815 16.9815 19.5 14.5 19.5C13.985 19.5 13.483 19.408 13 19.2365V10.7635ZM8.092 5.5C8.036 5.657 8 5.824 8 6C8 6.276 7.776 6.5 7.5 6.5H5.5C5.224 6.5 5 6.276 5 6C5 5.824 4.964 5.657 4.908 5.5H8.092ZM12 24C12 24.276 11.776 24.5 11.5 24.5H1.5C1.224 24.5 1 24.276 1 24V6C1 5.724 1.224 5.5 1.5 5.5H3.5C3.776 5.5 4 5.724 4 6C4 6.827 4.673 7.5 5.5 7.5H7.5C8.327 7.5 9 6.827 9 6C9 5.724 9.224 5.5 9.5 5.5H11.5C11.776 5.5 12 5.724 12 6V24ZM23 16H22.648C21.669 16 20.8285 16.5615 20.4535 17.466C20.079 18.3705 20.2765 19.3625 20.9685 20.0545L21.2175 20.3035L19.803 21.718L19.554 21.469C18.8615 20.776 17.8705 20.58 16.9655 20.954C16.0615 21.3285 15.5 22.169 15.5 23.148V23.5H13V20.2845C13.487 20.4235 13.988 20.5 14.5 20.5C17.5325 20.5 20 18.0325 20 15C20 11.9675 17.5325 9.5 14.5 9.5C13.988 9.5 13.487 9.5765 13 9.7155V6.5H15.5V6.852C15.5 7.831 16.0615 8.6715 16.966 9.0465C17.8715 9.4215 18.863 9.2235 19.5545 8.5315L19.8035 8.2825L21.218 9.697L20.969 9.946C20.2765 10.638 20.0795 11.63 20.454 12.5345C20.8285 13.4385 21.669 14 22.648 14H23V16ZM28.5 15.5C28.224 15.5 28 15.276 28 15C28 14.724 28.224 14.5 28.5 14.5C28.776 14.5 29 14.724 29 15C29 15.276 28.776 15.5 28.5 15.5Z" />
  <path d="M28.5 5.5C27.849 5.5 27.299 5.9195 27.092 6.5H24.5C24.343 6.5 24.1945 6.574 24.1 6.7L22.6 8.7L23.4 9.2995L24.75 7.4995H27.092C27.299 8.08 27.849 8.4995 28.5 8.4995C29.327 8.4995 30 7.8265 30 6.9995C30 6.1725 29.327 5.5 28.5 5.5ZM28.5 7.5C28.224 7.5 28 7.276 28 7C28 6.724 28.224 6.5 28.5 6.5C28.776 6.5 29 6.724 29 7C29 7.276 28.776 7.5 28.5 7.5Z" />
  <path d="M28.5 0C27.849 0 27.299 0.4195 27.092 1H17.5C17.2235 1 17 1.2235 17 1.5V4H18V2H27.092C27.299 2.5805 27.849 3 28.5 3C29.327 3 30 2.327 30 1.5C30 0.673 29.327 0 28.5 0ZM28.5 2C28.224 2 28 1.776 28 1.5C28 1.224 28.224 1 28.5 1C28.776 1 29 1.224 29 1.5C29 1.776 28.776 2 28.5 2Z" />
  <path d="M28.5 21.5C27.849 21.5 27.299 21.9195 27.092 22.5H24.75L23.4 20.7L22.6 21.3L24.1 23.3C24.194 23.426 24.3425 23.5 24.5 23.5H27.092C27.299 24.0805 27.849 24.5 28.5 24.5C29.327 24.5 30 23.827 30 23C30 22.173 29.327 21.5 28.5 21.5ZM28.5 23.5C28.224 23.5 28 23.276 28 23C28 22.724 28.224 22.5 28.5 22.5C28.776 22.5 29 22.724 29 23C29 23.276 28.776 23.5 28.5 23.5Z" />
  <path d="M28.5 27C27.849 27 27.299 27.4195 27.092 28H18V26H17V28.5C17 28.7765 17.2235 29 17.5 29H27.092C27.299 29.5805 27.849 30 28.5 30C29.327 30 30 29.327 30 28.5C30 27.673 29.327 27 28.5 27ZM28.5 29C28.224 29 28 28.776 28 28.5C28 28.224 28.224 28 28.5 28C28.776 28 29 28.224 29 28.5C29 28.776 28.776 29 28.5 29Z" />
  <path d="M10.5 8.5H2.49999C2.22349 8.5 1.99999 8.7235 1.99999 9V22.5C1.99999 22.7765 2.22349 23 2.49999 23H10.5C10.7765 23 11 22.7765 11 22.5V9C11 8.7235 10.7765 8.5 10.5 8.5ZM9.99998 9.5V10.5H2.99999V9.5H9.99998ZM2.99999 22V11.5H9.99998V22H2.99999Z" />
  <path d="M4.00001 12.5H5.00001V13.5H4.00001V12.5Z" />
  <path d="M6 12.5H7V13.5H6V12.5Z" />
  <path d="M7.00001 19.5H9.00001V20.5H7.00001V19.5Z" />
</svg>
