<svg width="30" height="30" viewBox="0 0 30 30" xmlns="http://www.w3.org/2000/svg">
  <path d="M18.5 21.5H11.5C11.2348 21.5 10.9804 21.3946 10.7929 21.2071C10.6054 21.0196 10.5 20.7652 10.5 20.5V9.5C10.5 9.23479 10.6054 8.98043 10.7929 8.7929C10.9804 8.60536 11.2348 8.5 11.5 8.5H18.5C18.7652 8.5 19.0196 8.60536 19.2071 8.7929C19.3946 8.98043 19.5 9.23479 19.5 9.5V20.5C19.5 20.7652 19.3946 21.0196 19.2071 21.2071C19.0196 21.3946 18.7652 21.5 18.5 21.5ZM11.5 9.5V20.5H18.5V9.5H11.5Z" />
  <path d="M15 16.5C15.2967 16.5 15.5867 16.588 15.8334 16.7528C16.08 16.9176 16.2723 17.1519 16.3858 17.426C16.4994 17.7001 16.5291 18.0017 16.4712 18.2926C16.4133 18.5836 16.2704 18.8509 16.0607 19.0607C15.8509 19.2704 15.5836 19.4133 15.2926 19.4712C15.0017 19.5291 14.7001 19.4994 14.426 19.3858C14.1519 19.2723 13.9176 19.08 13.7528 18.8334C13.588 18.5867 13.5 18.2967 13.5 18C13.5 17.6022 13.658 17.2206 13.9393 16.9393C14.2206 16.658 14.6022 16.5 15 16.5ZM15 18.5C15.0989 18.5 15.1956 18.4707 15.2778 18.4157C15.36 18.3608 15.4241 18.2827 15.4619 18.1913C15.4998 18.1 15.5097 17.9994 15.4904 17.9025C15.4711 17.8055 15.4235 17.7164 15.3536 17.6464C15.2836 17.5765 15.1945 17.5289 15.0975 17.5096C15.0006 17.4903 14.9 17.5002 14.8087 17.5381C14.7173 17.5759 14.6392 17.64 14.5843 17.7222C14.5293 17.8044 14.5 17.9011 14.5 18C14.5 18.1326 14.5527 18.2598 14.6464 18.3536C14.7402 18.4473 14.8674 18.5 15 18.5Z" />
  <path d="M13 12.5H17V11.5H13V12.5Z" />
  <path d="M13 14.5H17V13.5H13V14.5Z" />
  <path d="M21 19.4999V18.4999H24C24.1326 18.5 24.2598 18.5527 24.3535 18.6464L25.8535 20.1464L25.1465 20.8534L23.793 19.4999H21Z" />
  <path d="M24.3535 11.3535C24.2598 11.4473 24.1326 11.5 24 11.5H21V10.5H23.793L25.1465 9.1465L25.8535 9.8535L24.3535 11.3535Z" />
  <path d="M21 15.5H26V14.5H21V15.5Z" />
  <path d="M5.64652 18.6464C5.74027 18.5527 5.86742 18.5 6.00002 18.4999H9.00002V19.4999H6.20702L4.85352 20.8534L4.14652 20.1464L5.64652 18.6464Z" />
  <path d="M9.00002 10.5V11.5H6.00002C5.86742 11.5 5.74027 11.4473 5.64652 11.3535L4.14652 9.8535L4.85352 9.1465L6.20702 10.5H9.00002Z" />
  <path d="M4 15.5H9V14.5H4V15.5Z" />
  <path d="M27 20.5C27.2967 20.5 27.5867 20.588 27.8334 20.7528C28.08 20.9176 28.2723 21.1519 28.3858 21.426C28.4993 21.7001 28.5291 22.0017 28.4712 22.2926C28.4133 22.5836 28.2704 22.8509 28.0607 23.0607C27.8509 23.2704 27.5836 23.4133 27.2926 23.4712C27.0017 23.5291 26.7001 23.4993 26.426 23.3858C26.1519 23.2723 25.9176 23.08 25.7528 22.8334C25.588 22.5867 25.5 22.2967 25.5 22C25.5 21.6022 25.658 21.2206 25.9393 20.9393C26.2206 20.658 26.6022 20.5 27 20.5ZM27 22.5C27.0989 22.5 27.1956 22.4707 27.2778 22.4157C27.36 22.3608 27.4241 22.2827 27.4619 22.1913C27.4998 22.1 27.5097 21.9994 27.4904 21.9025C27.4711 21.8055 27.4235 21.7164 27.3536 21.6464C27.2836 21.5765 27.1945 21.5289 27.0975 21.5096C27.0006 21.4903 26.9 21.5002 26.8087 21.5381C26.7173 21.5759 26.6392 21.64 26.5843 21.7222C26.5293 21.8044 26.5 21.9011 26.5 22C26.5 22.1326 26.5527 22.2598 26.6464 22.3536C26.7402 22.4473 26.8674 22.5 27 22.5Z" />
  <path d="M28.5 16.5C28.2033 16.5 27.9133 16.412 27.6666 16.2472C27.42 16.0824 27.2277 15.8481 27.1142 15.574C27.0006 15.2999 26.9709 14.9983 27.0288 14.7074C27.0867 14.4164 27.2296 14.1491 27.4393 13.9393C27.6491 13.7296 27.9164 13.5867 28.2074 13.5288C28.4983 13.4709 28.7999 13.5006 29.074 13.6142C29.3481 13.7277 29.5824 13.92 29.7472 14.1666C29.912 14.4133 30 14.7033 30 15C30 15.3978 29.842 15.7794 29.5607 16.0607C29.2794 16.342 28.8978 16.5 28.5 16.5ZM28.5 14.5C28.4011 14.5 28.3044 14.5293 28.2222 14.5843C28.14 14.6392 28.0759 14.7173 28.0381 14.8087C28.0002 14.9 27.9903 15.0006 28.0096 15.0975C28.0289 15.1945 28.0765 15.2836 28.1464 15.3536C28.2164 15.4235 28.3055 15.4711 28.4025 15.4904C28.4994 15.5097 28.6 15.4998 28.6913 15.4619C28.7827 15.4241 28.8608 15.36 28.9157 15.2778C28.9707 15.1956 29 15.0989 29 15C29 14.8674 28.9473 14.7402 28.8536 14.6464C28.7598 14.5527 28.6326 14.5 28.5 14.5Z" />
  <path d="M27 9.5C26.7033 9.5 26.4133 9.41203 26.1666 9.24721C25.92 9.08238 25.7277 8.84811 25.6142 8.57403C25.5006 8.29994 25.4709 7.99834 25.5288 7.70737C25.5867 7.41639 25.7296 7.14912 25.9393 6.93934C26.1491 6.72956 26.4164 6.5867 26.7074 6.52882C26.9983 6.47094 27.2999 6.50065 27.574 6.61418C27.8481 6.72771 28.0824 6.91997 28.2472 7.16665C28.412 7.41332 28.5 7.70333 28.5 8C28.5 8.39783 28.342 8.77936 28.0607 9.06066C27.7794 9.34197 27.3978 9.5 27 9.5ZM27 7.5C26.9011 7.5 26.8044 7.52932 26.7222 7.58427C26.64 7.63921 26.5759 7.7173 26.5381 7.80866C26.5002 7.90002 26.4903 8.00056 26.5096 8.09755C26.5289 8.19454 26.5765 8.28363 26.6464 8.35356C26.7164 8.42348 26.8055 8.4711 26.9025 8.49039C26.9994 8.50969 27.1 8.49978 27.1913 8.46194C27.2827 8.4241 27.3608 8.36001 27.4157 8.27779C27.4707 8.19556 27.5 8.09889 27.5 8C27.5 7.86739 27.4473 7.74022 27.3536 7.64645C27.2598 7.55268 27.1326 7.5 27 7.5Z" />
  <path d="M3 20.5C3.29667 20.5 3.58668 20.588 3.83335 20.7528C4.08003 20.9176 4.27229 21.1519 4.38582 21.426C4.49935 21.7001 4.52905 22.0017 4.47118 22.2926C4.4133 22.5836 4.27044 22.8509 4.06066 23.0607C3.85088 23.2704 3.5836 23.4133 3.29263 23.4712C3.00166 23.5291 2.70006 23.4993 2.42597 23.3858C2.15188 23.2723 1.91762 23.08 1.7528 22.8334C1.58797 22.5867 1.5 22.2967 1.5 22C1.5 21.6022 1.65803 21.2206 1.93934 20.9393C2.22064 20.658 2.60217 20.5 3 20.5ZM3 22.5C3.09889 22.5 3.19556 22.4707 3.27778 22.4157C3.36001 22.3608 3.42409 22.2827 3.46194 22.1913C3.49978 22.1 3.50968 21.9994 3.49039 21.9025C3.4711 21.8055 3.42348 21.7164 3.35355 21.6464C3.28363 21.5765 3.19453 21.5289 3.09754 21.5096C3.00055 21.4903 2.90002 21.5002 2.80866 21.5381C2.71729 21.5759 2.6392 21.64 2.58426 21.7222C2.52932 21.8044 2.5 21.9011 2.5 22C2.5 22.1326 2.55268 22.2598 2.64645 22.3536C2.74021 22.4473 2.86739 22.5 3 22.5Z" />
  <path d="M3 15C3 15.2967 2.91202 15.5867 2.7472 15.8334C2.58238 16.08 2.34811 16.2723 2.07402 16.3858C1.79993 16.4994 1.49834 16.5291 1.20736 16.4712C0.916393 16.4133 0.649119 16.2704 0.43934 16.0607C0.229562 15.8509 0.0867005 15.5836 0.0288227 15.2926C-0.029055 15.0017 0.000649929 14.7001 0.114181 14.426C0.227713 14.1519 0.419971 13.9176 0.666645 13.7528C0.913318 13.588 1.20333 13.5 1.5 13.5C1.89782 13.5 2.27935 13.658 2.56066 13.9393C2.84196 14.2206 3 14.6022 3 15ZM1 15C1 15.0989 1.02932 15.1956 1.08426 15.2778C1.13921 15.36 1.21729 15.4241 1.30866 15.4619C1.40002 15.4998 1.50055 15.5097 1.59754 15.4904C1.69453 15.4711 1.78363 15.4235 1.85355 15.3536C1.92348 15.2836 1.9711 15.1945 1.99039 15.0975C2.00968 15.0006 1.99978 14.9 1.96194 14.8087C1.92409 14.7173 1.86001 14.6392 1.77778 14.5843C1.69556 14.5293 1.59889 14.5 1.5 14.5C1.36739 14.5 1.24021 14.5527 1.14645 14.6464C1.05268 14.7402 1 14.8674 1 15Z" />
  <path d="M3 9.5C2.70333 9.5 2.41332 9.41203 2.16664 9.24721C1.91997 9.08238 1.72771 8.84811 1.61418 8.57403C1.50065 8.29994 1.47094 7.99834 1.52882 7.70737C1.5867 7.41639 1.72956 7.14912 1.93934 6.93934C2.14912 6.72956 2.41639 6.5867 2.70736 6.52882C2.99834 6.47094 3.29994 6.50065 3.57403 6.61418C3.84811 6.72771 4.08238 6.91997 4.2472 7.16665C4.41203 7.41332 4.5 7.70333 4.5 8C4.5 8.39783 4.34196 8.77936 4.06066 9.06066C3.77936 9.34197 3.39782 9.5 3 9.5ZM3 7.5C2.90111 7.5 2.80444 7.52932 2.72221 7.58427C2.63999 7.63921 2.5759 7.7173 2.53806 7.80866C2.50022 7.90002 2.49031 8.00056 2.50961 8.09755C2.5289 8.19454 2.57652 8.28363 2.64645 8.35356C2.71637 8.42348 2.80546 8.4711 2.90245 8.49039C2.99945 8.50969 3.09998 8.49978 3.19134 8.46194C3.2827 8.4241 3.36079 8.36001 3.41573 8.27779C3.47068 8.19556 3.5 8.09889 3.5 8C3.5 7.86739 3.44732 7.74022 3.35355 7.64645C3.25979 7.55268 3.13261 7.5 3 7.5Z" />
  <path d="M15 27C15.2967 27 15.5867 27.088 15.8334 27.2528C16.08 27.4176 16.2723 27.6519 16.3858 27.926C16.4994 28.2001 16.5291 28.5017 16.4712 28.7926C16.4133 29.0836 16.2704 29.3509 16.0607 29.5607C15.8509 29.7704 15.5836 29.9133 15.2926 29.9712C15.0017 30.0291 14.7001 29.9993 14.426 29.8858C14.1519 29.7723 13.9176 29.58 13.7528 29.3334C13.588 29.0867 13.5 28.7967 13.5 28.5C13.5 28.1022 13.658 27.7206 13.9393 27.4393C14.2206 27.158 14.6022 27 15 27ZM15 29C15.0989 29 15.1956 28.9707 15.2778 28.9157C15.36 28.8608 15.4241 28.7827 15.4619 28.6913C15.4998 28.6 15.5097 28.4994 15.4904 28.4025C15.4711 28.3055 15.4235 28.2164 15.3536 28.1464C15.2836 28.0765 15.1945 28.0289 15.0975 28.0096C15.0006 27.9903 14.9 28.0002 14.8087 28.0381C14.7173 28.0759 14.6392 28.14 14.5843 28.2222C14.5293 28.3044 14.5 28.4011 14.5 28.5C14.5 28.6326 14.5527 28.7598 14.6464 28.8536C14.7402 28.9473 14.8674 29 15 29Z" />
  <path d="M23 27C23.2967 27 23.5867 27.088 23.8334 27.2528C24.08 27.4176 24.2723 27.6519 24.3858 27.926C24.4993 28.2001 24.5291 28.5017 24.4712 28.7926C24.4133 29.0836 24.2704 29.3509 24.0607 29.5607C23.8509 29.7704 23.5836 29.9133 23.2926 29.9712C23.0017 30.0291 22.7001 29.9993 22.426 29.8858C22.1519 29.7723 21.9176 29.58 21.7528 29.3334C21.588 29.0867 21.5 28.7967 21.5 28.5C21.5 28.1022 21.658 27.7206 21.9393 27.4393C22.2206 27.158 22.6022 27 23 27ZM23 29C23.0989 29 23.1956 28.9707 23.2778 28.9157C23.36 28.8608 23.4241 28.7827 23.4619 28.6913C23.4998 28.6 23.5097 28.4994 23.4904 28.4025C23.4711 28.3055 23.4235 28.2164 23.3536 28.1464C23.2836 28.0765 23.1945 28.0289 23.0975 28.0096C23.0006 27.9903 22.9 28.0002 22.8087 28.0381C22.7173 28.0759 22.6392 28.14 22.5843 28.2222C22.5293 28.3044 22.5 28.4011 22.5 28.5C22.5 28.6326 22.5527 28.7598 22.6464 28.8536C22.7402 28.9473 22.8674 29 23 29Z" />
  <path d="M11.0115 23.9999H14.5V22.4999H15.5V23.9999H18.9885C19.1211 23.9999 19.2482 24.0526 19.342 24.1464L21.35 26.1499L20.6405 26.8594L18.781 24.9999H15.5V25.9999H14.5V24.9999H11.219L9.3595 26.8594L8.6525 26.1499L10.658 24.1439C10.7522 24.051 10.8793 23.9992 11.0115 23.9999Z" />
  <path d="M7 27C7.29667 27 7.58668 27.088 7.83335 27.2528C8.08002 27.4176 8.27228 27.6519 8.38582 27.926C8.49935 28.2001 8.52905 28.5017 8.47117 28.7926C8.4133 29.0836 8.27044 29.3509 8.06066 29.5607C7.85088 29.7704 7.5836 29.9133 7.29263 29.9712C7.00166 30.0291 6.70006 29.9993 6.42597 29.8858C6.15188 29.7723 5.91762 29.58 5.75279 29.3334C5.58797 29.0867 5.5 28.7967 5.5 28.5C5.5 28.1022 5.65803 27.7206 5.93934 27.4393C6.22064 27.158 6.60217 27 7 27ZM7 29C7.09889 29 7.19556 28.9707 7.27778 28.9157C7.36001 28.8608 7.42409 28.7827 7.46194 28.6913C7.49978 28.6 7.50968 28.4994 7.49039 28.4025C7.4711 28.3055 7.42348 28.2164 7.35355 28.1464C7.28363 28.0765 7.19453 28.0289 7.09754 28.0096C7.00055 27.9903 6.90002 28.0002 6.80866 28.0381C6.71729 28.0759 6.6392 28.14 6.58426 28.2222C6.52932 28.3044 6.5 28.4011 6.5 28.5C6.5 28.6326 6.55268 28.7598 6.64644 28.8536C6.74021 28.9473 6.86739 29 7 29Z" />
  <path d="M15 3C14.7033 3 14.4133 2.91203 14.1666 2.74721C13.92 2.58239 13.7277 2.34812 13.6142 2.07403C13.5006 1.79994 13.4709 1.49834 13.5288 1.20737C13.5867 0.916395 13.7296 0.649121 13.9393 0.439342C14.1491 0.229563 14.4164 0.0867004 14.7074 0.0288225C14.9983 -0.0290554 15.2999 0.000650635 15.574 0.114182C15.8481 0.227714 16.0824 0.419972 16.2472 0.666646C16.412 0.91332 16.5 1.20333 16.5 1.5C16.5 1.89783 16.342 2.27936 16.0607 2.56066C15.7794 2.84197 15.3978 3 15 3ZM15 1C14.9011 1 14.8044 1.02933 14.7222 1.08427C14.64 1.13921 14.5759 1.2173 14.5381 1.30866C14.5002 1.40002 14.4903 1.50056 14.5096 1.59755C14.5289 1.69454 14.5765 1.78363 14.6464 1.85356C14.7164 1.92348 14.8055 1.9711 14.9025 1.9904C14.9994 2.00969 15.1 1.99979 15.1913 1.96194C15.2827 1.9241 15.3608 1.86001 15.4157 1.77779C15.4707 1.69556 15.5 1.59889 15.5 1.5C15.5 1.36739 15.4473 1.24022 15.3536 1.14645C15.2598 1.05268 15.1326 1 15 1Z" />
  <path d="M18.9885 6H15.5V7.5H14.5V6H11.0115C10.8789 5.99997 10.7517 5.94728 10.658 5.8535L8.6525 3.8475L9.3595 3.1405L11.219 5H14.5V4H15.5V5H18.781L20.6405 3.1405L21.35 3.8475L19.3445 5.8535C19.2978 5.90023 19.2423 5.93724 19.1812 5.96239C19.1201 5.98753 19.0546 6.00032 18.9885 6Z" />
  <path d="M23 3C22.7033 3 22.4133 2.91203 22.1666 2.74721C21.92 2.58239 21.7277 2.34812 21.6142 2.07403C21.5006 1.79994 21.4709 1.49834 21.5288 1.20737C21.5867 0.916395 21.7296 0.649121 21.9393 0.439342C22.1491 0.229563 22.4164 0.0867004 22.7074 0.0288225C22.9983 -0.0290554 23.2999 0.000650635 23.574 0.114182C23.8481 0.227714 24.0824 0.419972 24.2472 0.666646C24.412 0.91332 24.5 1.20333 24.5 1.5C24.5 1.89783 24.342 2.27936 24.0607 2.56066C23.7794 2.84197 23.3978 3 23 3ZM23 1C22.9011 1 22.8044 1.02933 22.7222 1.08427C22.64 1.13921 22.5759 1.2173 22.5381 1.30866C22.5002 1.40002 22.4903 1.50056 22.5096 1.59755C22.5289 1.69454 22.5765 1.78363 22.6464 1.85356C22.7164 1.92348 22.8055 1.9711 22.9025 1.9904C22.9994 2.00969 23.1 1.99979 23.1913 1.96194C23.2827 1.9241 23.3608 1.86001 23.4157 1.77779C23.4707 1.69556 23.5 1.59889 23.5 1.5C23.5 1.36739 23.4473 1.24022 23.3536 1.14645C23.2598 1.05268 23.1326 1 23 1Z" />
  <path d="M7 3C6.70333 3 6.41332 2.91203 6.16664 2.74721C5.91997 2.58239 5.72771 2.34812 5.61418 2.07403C5.50065 1.79994 5.47094 1.49834 5.52882 1.20737C5.5867 0.916395 5.72956 0.649121 5.93934 0.439342C6.14912 0.229563 6.41639 0.0867004 6.70736 0.0288225C6.99833 -0.0290554 7.29993 0.000650635 7.57402 0.114182C7.84811 0.227714 8.08238 0.419972 8.2472 0.666646C8.41202 0.91332 8.5 1.20333 8.5 1.5C8.5 1.89783 8.34196 2.27936 8.06066 2.56066C7.77935 2.84197 7.39782 3 7 3ZM7 1C6.90111 1 6.80444 1.02933 6.72221 1.08427C6.63999 1.13921 6.5759 1.2173 6.53806 1.30866C6.50022 1.40002 6.49031 1.50056 6.50961 1.59755C6.5289 1.69454 6.57652 1.78363 6.64645 1.85356C6.71637 1.92348 6.80546 1.9711 6.90245 1.9904C6.99944 2.00969 7.09998 1.99979 7.19134 1.96194C7.2827 1.9241 7.36079 1.86001 7.41573 1.77779C7.47067 1.69556 7.5 1.59889 7.5 1.5C7.5 1.36739 7.44732 1.24022 7.35355 1.14645C7.25978 1.05268 7.13261 1 7 1Z" />
</svg>
