<svg width="20" height="20" viewBox="0 0 20 20" xmlns="http://www.w3.org/2000/svg">
    <path d="M17.0712 4.09017L4.10761 17.0538C3.78234 17.3791 3.25437 17.3791 2.9291 17.0538C2.60383 16.7285 2.60383 16.2006 2.9291 15.8753L15.8927 2.91166C16.218 2.58639 16.746 2.58639 17.0712 2.91166C17.3965 3.23693 17.3965 3.7649 17.0712 4.09017Z"/>
    <path d="M16.0548 17.4871L3.09117 4.52344C2.7659 4.19817 2.7659 3.6702 3.09116 3.34493C3.41643 3.01966 3.94441 3.01966 4.26968 3.34493L17.2333 16.3086C17.5586 16.6338 17.5586 17.1618 17.2333 17.4871C16.908 17.8123 16.3801 17.8123 16.0548 17.4871Z"/>
</svg>