<svg viewBox="0 0 14 14" xmlns="http://www.w3.org/2000/svg">
    <path d="M10.75 8H10.25C10.177 8 10.117 8.0234 10.0704 8.07041C10.0234 8.11715 10 8.17705 10 8.25V10.75C10 11.0937 9.87768 11.388 9.63291 11.6328C9.38814 11.8776 9.09382 11.9998 8.75005 11.9998H2.24996C1.90621 11.9998 1.61192 11.8776 1.36709 11.6328C1.12232 11.388 0.999953 11.0938 0.999953 10.75V4.24997C0.999953 3.90623 1.1223 3.61204 1.36709 3.36724C1.61192 3.12242 1.90621 3.00008 2.24996 3.00008H7.7499C7.82294 3.00008 7.88286 2.97657 7.92968 2.92975C7.9765 2.88288 7.9999 2.82303 7.9999 2.75005V2.24998C7.9999 2.17714 7.9765 2.11718 7.92968 2.07039C7.88286 2.02352 7.82294 2.00012 7.7499 2.00012H2.24996C1.63022 2.00012 1.10024 2.22018 0.660068 2.66027C0.220059 3.10034 0 3.63032 0 4.25005V10.7501C0 11.3698 0.220059 11.8999 0.660095 12.3398C1.10027 12.7799 1.63025 13.0001 2.24998 13.0001H8.75005C9.36975 13.0001 9.89979 12.7799 10.3399 12.3398C10.7801 11.8999 11.0001 11.3698 11.0001 10.7501V8.25019C11.0001 8.17716 10.9767 8.11723 10.9297 8.07041C10.8828 8.0234 10.8229 8 10.75 8Z" />
    <path d="M13.8514 1.14854C13.7525 1.04957 13.6351 1.00012 13.4998 1.00012H9.49985C9.36446 1.00012 9.2472 1.04957 9.14831 1.14854C9.04934 1.24746 8.99978 1.36466 8.99978 1.50008C8.99978 1.63551 9.04934 1.75273 9.14831 1.85171L10.5233 3.22668L5.42959 8.32047C5.37744 8.37254 5.35144 8.43247 5.35144 8.50006C5.35144 8.56789 5.37752 8.62779 5.42959 8.67986L6.32022 9.57039C6.3723 9.62246 6.43222 9.64843 6.49992 9.64843C6.56762 9.64843 6.62757 9.62249 6.67962 9.57039L11.7733 4.47669L13.1484 5.85166C13.2472 5.95063 13.3645 6.00013 13.4999 6.00013C13.6353 6.00013 13.7525 5.95063 13.8515 5.85166C13.9505 5.75271 14 5.63554 14 5.50012V1.50008C13.9999 1.36458 13.9503 1.24746 13.8514 1.14854Z" />
</svg>