<svg width="30" height="39" viewBox="0 0 30 39" fill="none" xmlns="http://www.w3.org/2000/svg">
  <g filter="url(#filter0_d)">
    <g clip-path="url(#clip0)">
      <path d="M25.1768 18.708L14.9941 28.8917L4.81142 18.708C4.62146 18.5245 4.31869 18.5298 4.13518 18.7198C3.9562 18.9051 3.9562 19.1989 4.13518 19.3842L14.6565 29.9055C14.8432 30.0922 15.1459 30.0922 15.3327 29.9055L25.854 19.3842C26.0375 19.1943 26.0322 18.8915 25.8423 18.708C25.6569 18.529 25.3631 18.529 25.1778 18.708L25.1768 18.708Z" fill="#607D8B"/>
      <path d="M25.1768 10.0998L14.9941 20.2835L4.81142 10.0998C4.62146 9.91633 4.31869 9.92162 4.13518 10.1116C3.9562 10.2969 3.9562 10.5907 4.13518 10.7761L14.6565 21.2974C14.8432 21.4841 15.1459 21.4841 15.3327 21.2974L25.854 10.7761C26.044 10.5926 26.0492 10.2899 25.8658 10.0998C25.6823 9.90987 25.3795 9.90463 25.1895 10.0881C25.1855 10.0919 25.1816 10.0958 25.1778 10.0998H25.1768Z" fill="#607D8B"/>
      <path d="M14.9941 30.0461C14.8672 30.0464 14.7454 29.9961 14.6555 29.9065L4.13424 19.3852C3.95073 19.1952 3.95602 18.8924 4.14598 18.7089C4.33133 18.5299 4.62513 18.5299 4.81044 18.7089L14.9941 28.8916L25.1768 18.708C25.3667 18.5245 25.6695 18.5298 25.853 18.7197C26.0321 18.9051 26.0321 19.1989 25.853 19.3842L15.3318 29.9055C15.2423 29.9952 15.1209 30.0458 14.9941 30.0461Z" fill="white"/>
      <path d="M14.9941 21.4377C14.8672 21.438 14.7454 21.3878 14.6555 21.2981L4.13424 10.7768C3.95073 10.5868 3.95602 10.284 4.14598 10.1005C4.33133 9.92156 4.62513 9.92156 4.81048 10.1005L14.9941 20.2832L25.1768 10.0996C25.3603 9.90963 25.6631 9.90438 25.8531 10.0878C26.0431 10.2713 26.0483 10.5741 25.8648 10.7641C25.861 10.7681 25.8571 10.772 25.8531 10.7758L15.3318 21.2971C15.2423 21.3869 15.1209 21.4374 14.9941 21.4377Z" fill="white"/>
    </g>

    <path d="M14.9941 11.4841C14.8672 11.4844 14.7454 11.4341 14.6556 11.3445L4.13425 0.823171C3.95074 0.633205 3.95603 0.330434 4.146 0.146924C4.33135 -0.0320574 4.62515 -0.0320574 4.8105 0.146924L14.9941 10.3296L25.1769 0.145982C25.3604 -0.0439836 25.6631 -0.0492292 25.8531 0.134236C26.0431 0.317701 26.0483 0.620471 25.8648 0.810482C25.861 0.814473 25.8571 0.818373 25.8531 0.822229L15.3318 11.3435C15.2423 11.4332 15.1209 11.4838 14.9941 11.4841Z" fill="white"/>
  </g>

  <defs>
    <filter id="filter0_d" x="0" y="0" width="30" height="39" filterUnits="userSpaceOnUse" color-interpolation-filters="sRGB">
      <feFlood flood-opacity="0" result="BackgroundImageFix"/>
      <feColorMatrix in="SourceAlpha" type="matrix" values="0 0 0 0 0 0 0 0 0 0 0 0 0 0 0 0 0 0 127 0"/>
      <feOffset dy="4"/>
      <feGaussianBlur stdDeviation="2"/>
      <feColorMatrix type="matrix" values="0 0 0 0 1 0 0 0 0 1 0 0 0 0 1 0 0 0 0.39 0"/>
      <feBlend mode="normal" in2="BackgroundImageFix" result="effect1_dropShadow"/>
      <feBlend mode="normal" in="SourceGraphic" in2="effect1_dropShadow" result="shape"/>
    </filter>

    <clipPath id="clip0">
      <rect width="22" height="22" fill="white" transform="translate(4 9)"/>
    </clipPath>
  </defs>
</svg>
