<svg width="423" height="135" viewBox="0 0 423 135" fill="none" xmlns="http://www.w3.org/2000/svg">
  <g filter="url(#filter0_dd)">
    <path d="M395.22 85.5627C278.398 -0.0589981 117.609 134.073 21 70.1915L26.944 74.9305C123.553 138.812 286.178 6.00932 403 91.6311L395.22 85.5627Z" fill="white"/>
  </g>

  <g style="mix-blend-mode:multiply">
    <mask id="path-2-inside-1" fill="white">
      <path d="M265.446 60.4804L265.571 60.7576C265.843 61.3534 266.116 61.9484 266.387 62.5423L266.417 62.6083L266.418 62.6086C271.806 74.3881 277 85.7441 282.629 94.2942C285.591 98.7933 288.664 102.499 291.932 105.077C295.204 107.658 298.623 109.071 302.274 109.071C305.926 109.071 309.36 107.658 312.651 105.077C315.938 102.499 319.033 98.7927 322.01 94.2938C327.963 85.2973 333.405 73.1929 338.977 60.7588L339.18 60.3115C345.569 46.2338 352.401 31.1805 360.953 19.6848C365.23 13.9352 369.949 9.05965 375.277 5.63812C380.608 2.21459 386.573 0.232566 393.328 0.310673L393.648 0.31066C399.214 0.310326 404.612 0.310001 409.572 1.45027C414.567 2.5986 419.087 4.89417 422.944 9.44182L423 9.50822L415.513 38.3298L415.028 37.5991C408.531 27.8216 399.115 25.6186 393.082 25.6186C389.499 25.6186 386.132 27.0056 382.904 29.5478C379.679 32.087 376.642 35.7408 373.715 40.1858C367.863 49.0742 362.49 61.0635 356.931 73.4695L356.864 73.6197C356.565 74.2728 356.265 74.9291 355.965 75.5861L355.965 75.587C349.698 89.3026 343.088 103.769 334.93 114.981C330.655 120.856 325.944 125.853 320.615 129.384C315.283 132.918 309.307 135 302.516 135C295.756 135 289.788 132.937 284.455 129.431C279.125 125.928 274.405 120.97 270.126 115.136C261.57 103.473 254.737 88.2502 248.344 74.0104L248.344 74.0101L248.169 73.6198C242.598 61.1861 237.155 49.1589 231.262 40.2399C228.315 35.7797 225.265 32.112 222.046 29.5629C218.821 27.0099 214.522 25.6186 210.994 25.6186C207.465 25.6186 204.179 27.0099 200.954 29.5629C197.735 32.112 194.685 35.7797 191.738 40.2399C185.845 49.1589 180.403 61.1861 174.831 73.6198L174.656 74.0101C168.263 88.25 161.43 103.473 152.874 115.136C148.595 120.97 143.875 125.928 138.545 129.431C133.212 132.937 127.244 135 120.484 135C113.693 135 107.717 132.918 102.385 129.384C97.0562 125.853 92.3451 120.856 88.0702 114.981C79.9114 103.769 73.3017 89.302 67.0351 75.5862L67.035 75.5861C66.7348 74.9291 66.435 74.2728 66.1363 73.6197L66.069 73.4695C60.51 61.0635 55.1372 49.0742 49.2847 40.1858C46.3579 35.7408 43.321 32.087 40.0963 29.5478C36.8677 27.0056 33.5009 25.6186 29.9177 25.6186C23.8851 25.6186 14.469 27.8216 7.97219 37.5991L7.48668 38.3298L0 9.50822L0.0563113 9.44182C3.9128 4.89417 8.43309 2.5986 13.4283 1.45027C18.3885 0.310001 23.7856 0.310326 29.3518 0.31066L29.6721 0.310673C36.4265 0.232566 42.3917 2.21459 47.7229 5.63812C53.0509 9.05965 57.7698 13.9352 62.0471 19.6848C70.599 31.1804 77.4308 46.2335 83.8198 60.3111L83.8199 60.3115L84.023 60.7588C89.5945 73.1929 95.0371 85.2973 100.99 94.2938C103.967 98.7927 107.062 102.499 110.349 105.077C113.641 107.658 117.074 109.071 120.726 109.071C124.377 109.071 127.796 107.658 131.068 105.077C134.336 102.499 137.409 98.7933 140.371 94.2942C146 85.7441 150.142 76.6874 156.583 62.6083C156.864 61.9924 157.146 61.3754 157.429 60.7576L157.554 60.4804C163.952 46.229 170.728 31.1335 179.169 19.6005C183.391 13.8323 188.04 8.93948 193.284 5.48588C198.273 2.20067 204.561 0.203932 210.881 0.0147787V0C211.045 0 211.209 0.00123724 211.374 0.00370261C211.538 0.00124177 211.702 6.85033e-06 211.866 6.85033e-06V0.0147185C218.209 0.20355 224.727 2.20036 229.716 5.48588C234.96 8.93948 239.609 13.8323 243.831 19.6005C252.272 31.1333 259.048 46.2286 265.446 60.4798L265.446 60.4804Z"/>
    </mask>
    <path d="M265.446 60.4804L265.571 60.7576C265.843 61.3534 266.116 61.9484 266.387 62.5423L266.417 62.6083L266.418 62.6086C271.806 74.3881 277 85.7441 282.629 94.2942C285.591 98.7933 288.664 102.499 291.932 105.077C295.204 107.658 298.623 109.071 302.274 109.071C305.926 109.071 309.36 107.658 312.651 105.077C315.938 102.499 319.033 98.7927 322.01 94.2938C327.963 85.2973 333.405 73.1929 338.977 60.7588L339.18 60.3115C345.569 46.2338 352.401 31.1805 360.953 19.6848C365.23 13.9352 369.949 9.05965 375.277 5.63812C380.608 2.21459 386.573 0.232566 393.328 0.310673L393.648 0.31066C399.214 0.310326 404.612 0.310001 409.572 1.45027C414.567 2.5986 419.087 4.89417 422.944 9.44182L423 9.50822L415.513 38.3298L415.028 37.5991C408.531 27.8216 399.115 25.6186 393.082 25.6186C389.499 25.6186 386.132 27.0056 382.904 29.5478C379.679 32.087 376.642 35.7408 373.715 40.1858C367.863 49.0742 362.49 61.0635 356.931 73.4695L356.864 73.6197C356.565 74.2728 356.265 74.9291 355.965 75.5861L355.965 75.587C349.698 89.3026 343.088 103.769 334.93 114.981C330.655 120.856 325.944 125.853 320.615 129.384C315.283 132.918 309.307 135 302.516 135C295.756 135 289.788 132.937 284.455 129.431C279.125 125.928 274.405 120.97 270.126 115.136C261.57 103.473 254.737 88.2502 248.344 74.0104L248.344 74.0101L248.169 73.6198C242.598 61.1861 237.155 49.1589 231.262 40.2399C228.315 35.7797 225.265 32.112 222.046 29.5629C218.821 27.0099 214.522 25.6186 210.994 25.6186C207.465 25.6186 204.179 27.0099 200.954 29.5629C197.735 32.112 194.685 35.7797 191.738 40.2399C185.845 49.1589 180.403 61.1861 174.831 73.6198L174.656 74.0101C168.263 88.25 161.43 103.473 152.874 115.136C148.595 120.97 143.875 125.928 138.545 129.431C133.212 132.937 127.244 135 120.484 135C113.693 135 107.717 132.918 102.385 129.384C97.0562 125.853 92.3451 120.856 88.0702 114.981C79.9114 103.769 73.3017 89.302 67.0351 75.5862L67.035 75.5861C66.7348 74.9291 66.435 74.2728 66.1363 73.6197L66.069 73.4695C60.51 61.0635 55.1372 49.0742 49.2847 40.1858C46.3579 35.7408 43.321 32.087 40.0963 29.5478C36.8677 27.0056 33.5009 25.6186 29.9177 25.6186C23.8851 25.6186 14.469 27.8216 7.97219 37.5991L7.48668 38.3298L0 9.50822L0.0563113 9.44182C3.9128 4.89417 8.43309 2.5986 13.4283 1.45027C18.3885 0.310001 23.7856 0.310326 29.3518 0.31066L29.6721 0.310673C36.4265 0.232566 42.3917 2.21459 47.7229 5.63812C53.0509 9.05965 57.7698 13.9352 62.0471 19.6848C70.599 31.1804 77.4308 46.2335 83.8198 60.3111L83.8199 60.3115L84.023 60.7588C89.5945 73.1929 95.0371 85.2973 100.99 94.2938C103.967 98.7927 107.062 102.499 110.349 105.077C113.641 107.658 117.074 109.071 120.726 109.071C124.377 109.071 127.796 107.658 131.068 105.077C134.336 102.499 137.409 98.7933 140.371 94.2942C146 85.7441 150.142 76.6874 156.583 62.6083C156.864 61.9924 157.146 61.3754 157.429 60.7576L157.554 60.4804C163.952 46.229 170.728 31.1335 179.169 19.6005C183.391 13.8323 188.04 8.93948 193.284 5.48588C198.273 2.20067 204.561 0.203932 210.881 0.0147787V0C211.045 0 211.209 0.00123724 211.374 0.00370261C211.538 0.00124177 211.702 6.85033e-06 211.866 6.85033e-06V0.0147185C218.209 0.20355 224.727 2.20036 229.716 5.48588C234.96 8.93948 239.609 13.8323 243.831 19.6005C252.272 31.1333 259.048 46.2286 265.446 60.4798L265.446 60.4804Z" fill="#204526"/>
    <path d="M265.446 60.4804L265.571 60.7576C265.843 61.3534 266.116 61.9484 266.387 62.5423L266.417 62.6083L266.418 62.6086C271.806 74.3881 277 85.7441 282.629 94.2942C285.591 98.7933 288.664 102.499 291.932 105.077C295.204 107.658 298.623 109.071 302.274 109.071C305.926 109.071 309.36 107.658 312.651 105.077C315.938 102.499 319.033 98.7927 322.01 94.2938C327.963 85.2973 333.405 73.1929 338.977 60.7588L339.18 60.3115C345.569 46.2338 352.401 31.1805 360.953 19.6848C365.23 13.9352 369.949 9.05965 375.277 5.63812C380.608 2.21459 386.573 0.232566 393.328 0.310673L393.648 0.31066C399.214 0.310326 404.612 0.310001 409.572 1.45027C414.567 2.5986 419.087 4.89417 422.944 9.44182L423 9.50822L415.513 38.3298L415.028 37.5991C408.531 27.8216 399.115 25.6186 393.082 25.6186C389.499 25.6186 386.132 27.0056 382.904 29.5478C379.679 32.087 376.642 35.7408 373.715 40.1858C367.863 49.0742 362.49 61.0635 356.931 73.4695L356.864 73.6197C356.565 74.2728 356.265 74.9291 355.965 75.5861L355.965 75.587C349.698 89.3026 343.088 103.769 334.93 114.981C330.655 120.856 325.944 125.853 320.615 129.384C315.283 132.918 309.307 135 302.516 135C295.756 135 289.788 132.937 284.455 129.431C279.125 125.928 274.405 120.97 270.126 115.136C261.57 103.473 254.737 88.2502 248.344 74.0104L248.344 74.0101L248.169 73.6198C242.598 61.1861 237.155 49.1589 231.262 40.2399C228.315 35.7797 225.265 32.112 222.046 29.5629C218.821 27.0099 214.522 25.6186 210.994 25.6186C207.465 25.6186 204.179 27.0099 200.954 29.5629C197.735 32.112 194.685 35.7797 191.738 40.2399C185.845 49.1589 180.403 61.1861 174.831 73.6198L174.656 74.0101C168.263 88.25 161.43 103.473 152.874 115.136C148.595 120.97 143.875 125.928 138.545 129.431C133.212 132.937 127.244 135 120.484 135C113.693 135 107.717 132.918 102.385 129.384C97.0562 125.853 92.3451 120.856 88.0702 114.981C79.9114 103.769 73.3017 89.302 67.0351 75.5862L67.035 75.5861C66.7348 74.9291 66.435 74.2728 66.1363 73.6197L66.069 73.4695C60.51 61.0635 55.1372 49.0742 49.2847 40.1858C46.3579 35.7408 43.321 32.087 40.0963 29.5478C36.8677 27.0056 33.5009 25.6186 29.9177 25.6186C23.8851 25.6186 14.469 27.8216 7.97219 37.5991L7.48668 38.3298L0 9.50822L0.0563113 9.44182C3.9128 4.89417 8.43309 2.5986 13.4283 1.45027C18.3885 0.310001 23.7856 0.310326 29.3518 0.31066L29.6721 0.310673C36.4265 0.232566 42.3917 2.21459 47.7229 5.63812C53.0509 9.05965 57.7698 13.9352 62.0471 19.6848C70.599 31.1804 77.4308 46.2335 83.8198 60.3111L83.8199 60.3115L84.023 60.7588C89.5945 73.1929 95.0371 85.2973 100.99 94.2938C103.967 98.7927 107.062 102.499 110.349 105.077C113.641 107.658 117.074 109.071 120.726 109.071C124.377 109.071 127.796 107.658 131.068 105.077C134.336 102.499 137.409 98.7933 140.371 94.2942C146 85.7441 150.142 76.6874 156.583 62.6083C156.864 61.9924 157.146 61.3754 157.429 60.7576L157.554 60.4804C163.952 46.229 170.728 31.1335 179.169 19.6005C183.391 13.8323 188.04 8.93948 193.284 5.48588C198.273 2.20067 204.561 0.203932 210.881 0.0147787V0C211.045 0 211.209 0.00123724 211.374 0.00370261C211.538 0.00124177 211.702 6.85033e-06 211.866 6.85033e-06V0.0147185C218.209 0.20355 224.727 2.20036 229.716 5.48588C234.96 8.93948 239.609 13.8323 243.831 19.6005C252.272 31.1333 259.048 46.2286 265.446 60.4798L265.446 60.4804Z" stroke="black" stroke-width="0.2" stroke-linejoin="round" mask="url(#path-2-inside-1)"/>
  </g>

  <defs>
    <filter id="filter0_dd" x="7" y="46" width="410" height="65" filterUnits="userSpaceOnUse" color-interpolation-filters="sRGB">
      <feFlood flood-opacity="0" result="BackgroundImageFix"/>
      <feColorMatrix in="SourceAlpha" type="matrix" values="0 0 0 0 0 0 0 0 0 0 0 0 0 0 0 0 0 0 127 0"/>
      <feOffset dy="4"/>
      <feGaussianBlur stdDeviation="7"/>
      <feColorMatrix type="matrix" values="0 0 0 0 0.0055992 0 0 0 0 1 0 0 0 0 0.164703 0 0 0 1 0"/>
      <feBlend mode="normal" in2="BackgroundImageFix" result="effect1_dropShadow"/>
      <feColorMatrix in="SourceAlpha" type="matrix" values="0 0 0 0 0 0 0 0 0 0 0 0 0 0 0 0 0 0 127 0"/>
      <feOffset dy="4"/>
      <feGaussianBlur stdDeviation="2"/>
      <feColorMatrix type="matrix" values="0 0 0 0 0 0 0 0 0 0 0 0 0 0 0 0 0 0 0.25 0"/>
      <feBlend mode="normal" in2="effect1_dropShadow" result="effect2_dropShadow"/>
      <feBlend mode="normal" in="SourceGraphic" in2="effect2_dropShadow" result="shape"/>
    </filter>
  </defs>
</svg>

