<svg width="92" height="29" viewBox="0 0 92 29" fill="none" xmlns="http://www.w3.org/2000/svg">
  <g filter="url(#filter0_d)">
    <path d="M85.76 17.6538C60.5816 0.102306 25.9273 27.5978 5.10535 14.5028L6.38643 15.4743C27.2084 28.5692 62.2584 1.34624 87.4368 18.8977L85.76 17.6538Z" fill="white"/>
  </g>

  <path d="M57.2523 12.4981L57.2792 12.5554L57.4618 12.9378L57.4619 12.938C58.624 15.3721 59.7444 17.7188 60.9585 19.4856C61.5973 20.4153 62.26 21.1812 62.9649 21.7139C63.6706 22.2473 64.408 22.5391 65.1955 22.5391C65.9831 22.5391 66.7237 22.2472 67.4335 21.7138C68.1425 21.1811 68.81 20.4152 69.4521 19.4855C70.7361 17.6264 71.91 15.1251 73.1117 12.5556L73.1555 12.4632C74.5335 9.55407 76.007 6.44335 77.8515 4.06781C78.7741 2.87968 79.7918 1.87215 80.941 1.1651C82.0909 0.457638 83.3775 0.0480592 84.8343 0.0641997L84.9034 0.064197C86.1039 0.0641278 87.268 0.0640608 88.3378 0.299694C89.4152 0.536993 90.3901 1.01137 91.2219 1.95112L91.234 1.96485L89.6193 7.92073L89.5146 7.76974C88.1133 5.74925 86.0824 5.294 84.7813 5.294C84.0085 5.294 83.2823 5.58062 82.5859 6.10597C81.8904 6.63068 81.2354 7.38574 80.6042 8.30427C79.3419 10.141 78.183 12.6186 76.9841 15.1823L76.9696 15.2133L76.7757 15.6196L76.7756 15.6199C75.424 18.4541 73.9985 21.4435 72.2388 23.7604C71.3168 24.9744 70.3006 26.0071 69.1513 26.7369C68.0012 27.4672 66.7123 27.8973 65.2477 27.8973C63.7896 27.8973 62.5024 27.471 61.3521 26.7466C60.2026 26.0227 59.1845 24.998 58.2616 23.7926C56.4164 21.3824 54.9424 18.2366 53.5637 15.294L53.5259 15.2133C52.3242 12.6439 51.1503 10.1585 49.8794 8.31546C49.2438 7.39376 48.586 6.63585 47.8916 6.10909C47.1961 5.58152 46.2688 5.294 45.5078 5.294C44.7468 5.294 44.038 5.58152 43.3425 6.10909C42.6481 6.63585 41.9903 7.39376 41.3547 8.31546C40.0837 10.1585 38.9098 12.6439 37.7082 15.2133L37.6704 15.294C36.2916 18.2366 34.8177 21.3824 32.9724 23.7926C32.0495 24.998 31.0314 26.0227 29.8819 26.7466C28.7316 27.471 27.4444 27.8973 25.9863 27.8973C24.5217 27.8973 23.2328 27.4672 22.0827 26.7369C20.9334 26.0071 19.9173 24.9744 18.9953 23.7604C17.2356 21.4435 15.81 18.454 14.4583 15.6197L14.4583 15.6196L14.2645 15.2133L14.25 15.1823C13.051 12.6186 11.8922 10.141 10.6299 8.30427C9.99863 7.38574 9.34361 6.63068 8.64811 6.10597C7.95175 5.58062 7.22558 5.294 6.45276 5.294C5.15161 5.294 3.12073 5.74925 1.71947 7.76974L1.61475 7.92073L0 1.96485L0.0121454 1.95112C0.843926 1.01137 1.81888 0.536993 2.89626 0.299694C3.96608 0.0640608 5.13015 0.0641278 6.33069 0.064197L6.39979 0.0641997C7.85659 0.0480592 9.14318 0.457638 10.293 1.1651C11.4422 1.87215 12.46 2.87968 13.3825 4.06781C15.227 6.44333 16.7005 9.55402 18.0785 12.4631L18.0786 12.4632L18.1224 12.5556C19.324 15.1251 20.4979 17.6264 21.7819 19.4855C22.424 20.4152 23.0915 21.1811 23.8005 21.7138C24.5104 22.2472 25.251 22.5391 26.0386 22.5391C26.8261 22.5391 27.5634 22.2473 28.2692 21.7139C28.9741 21.1812 29.6367 20.4153 30.2756 19.4856C31.4897 17.7188 32.3832 15.8472 33.7722 12.9378L33.9549 12.5554L33.9817 12.4981L33.9818 12.498C35.3616 9.55304 36.8233 6.43363 38.6438 4.05039C39.5544 2.8584 40.557 1.84732 41.6882 1.13364C42.7642 0.454762 44.1203 0.0421402 45.4835 0.0030525V0C45.5189 0 45.5543 0.000255392 45.5898 0.000764299C45.6251 0.000255391 45.6605 0 45.6959 0V0.00304148C47.0641 0.0420626 48.4698 0.454698 49.5459 1.13364C50.677 1.84732 51.6797 2.8584 52.5902 4.05039C54.4108 6.43362 55.8724 9.55301 57.2523 12.498L57.2523 12.4981Z" fill="white"/>

  <defs>
    <filter id="filter0_d" x="1.10535" y="11.5938" width="90.3315" height="16.5846" filterUnits="userSpaceOnUse" color-interpolation-filters="sRGB">
      <feFlood flood-opacity="0" result="BackgroundImageFix"/>
      <feColorMatrix in="SourceAlpha" type="matrix" values="0 0 0 0 0 0 0 0 0 0 0 0 0 0 0 0 0 0 127 0"/>
      <feOffset dy="5"/>
      <feGaussianBlur stdDeviation="2"/>
      <feColorMatrix type="matrix" values="0 0 0 0 1 0 0 0 0 1 0 0 0 0 1 0 0 0 1 0"/>
      <feBlend mode="normal" in2="BackgroundImageFix" result="effect1_dropShadow"/>
      <feBlend mode="normal" in="SourceGraphic" in2="effect1_dropShadow" result="shape"/>
    </filter>
  </defs>
</svg>
